# Made using Asset Forge (www.assetforge.io) version 1.3 

mtllib Onigiri.mtl 

g plane_cockpitNose%_89

v 0.8875645 -0.100001 -1.192093E-07
v -0.8875659 -0.09999985 -1.192093E-07
v 1.099999 -0.1000012 0.09656125
v -1.100001 -0.09999967 0.09656125
v -1.100001 -0.09999979 0.5000004
v 1.099999 -0.1000013 0.5000004
v 1.099999 -0.1000013 0.9034395
v -1.100001 -0.09999985 0.9034395
v 0.8875645 -0.1000013 1.000001
v -0.8875659 -0.1000001 1.000001
v -0.5521962 1.386577 0.7025256
v -0.4455546 1.386577 0.7509992
v 0.4455552 1.386576 0.7509992
v 0.5521968 1.386576 0.7025256
v 0.5521968 1.386576 0.5000005
v -0.5521962 1.386577 0.5000005
v -0.2928959 1.900001 0.3350004
v 0.2928972 1.9 0.3350004
v -0.3629993 1.900001 0.3668656
v 0.3630006 1.9 0.3668656
v -0.3629993 1.9 0.6331356
v 0.3630006 1.9 0.6331356
v -0.2928959 1.9 0.6650007
v 0.2928972 1.9 0.6650007
vn -1.3487E-06 -2.000001 -2.384186E-07
vn -1.430142 0.7869747 0.6500655
vn -1.430142 0.7869747 0.6500654
vn 4.28414E-07 0.6352995 0.9482089
vn 4.284141E-07 0.6352996 0.9482091
vn 4.28414E-07 0.6352994 0.9482091
vn 2.086058 0.6352983 5.960464E-08
vn 2.086058 0.6352982 5.960464E-08
vn 1.430143 0.7869728 0.6500655
vn 1.430143 0.7869728 0.6500654
vn -2.086057 0.6353011 5.960464E-08
vn -2.086057 0.6353011 5.960464E-08
vn 1.3487E-06 2.000001 2.384186E-07
vn -1.430142 0.7869746 -0.6500649
vn -1.430142 0.7869747 -0.650065
vn -1.430142 0.7869748 -0.6500652
vn 4.284141E-07 0.6352998 -0.948209
vn 4.28414E-07 0.6352997 -0.9482089
vn 1.430143 0.7869729 -0.6500652
vn 1.430143 0.7869728 -0.650065
vn 1.430143 0.7869727 -0.6500649
vn 4.284139E-07 0.6352993 0.9482091
vn 1.430143 0.7869725 0.6500655
vn 1.430143 0.7869725 0.6500655
vn -1.430142 0.7869744 0.6500655
vn -1.430142 0.7869744 0.6500655
vt -0.8875645 1.192093E-07
vt 0.8875659 1.192093E-07
vt -1.099999 -0.09656123
vt 1.100001 -0.09656123
vt 1.100001 -0.5000004
vt -1.099999 -0.5000004
vt -1.099999 -0.9034395
vt 1.100001 -0.9034395
vt -0.8875645 -1.000001
vt 0.8875659 -1.000001
vt -0.5521962 1.386577
vt -0.4455546 1.386577
vt -1.100001 -0.09999981
vt -0.8875659 -0.09999996
vt 0.8875645 -0.1000012
vt 0.4455552 1.386576
vt -0.7025257 1.386576
vt -0.5000005 1.386576
vt -0.9034395 -0.1000013
vt -0.5000004 -0.1000012
vt 0.5521968 1.386576
vt 1.099999 -0.1000013
vt 0.5000005 1.386577
vt 0.7025257 1.386577
vt 0.5000004 -0.09999976
vt 0.9034395 -0.09999981
vt 0.2928959 0.3350005
vt -0.2928972 0.3350005
vt 0.3629993 0.3668657
vt -0.3630006 0.3668657
vt 0.3629993 0.6331355
vt -0.3630006 0.6331355
vt 0.2928959 0.6650008
vt -0.2928972 0.6650008
vt 0.2928959 1.9
vt 0.3629993 1.9
vt 0.8875659 -0.09999985
vt 1.100001 -0.09999971
vt -0.8875645 -0.100001
vt -0.2928972 1.9
vt 0.3668657 1.9
vt 0.09656123 -0.09999971
vt 0.6331355 1.9
vt -1.099999 -0.1000012
vt -0.3630006 1.9
vt 0.2928972 1.9
vt -0.2928959 1.9
vt 0.3630006 1.9
vt -0.3629993 1.9
vt -0.6331355 1.9
vt -0.3668657 1.9
vt -0.09656123 -0.1000012

usemtl _defaultMat (Instance) (Instance)
usemap _defaultMat (Instance) (Instance)
f 3/3/1 2/2/1 1/1/1
f 2/2/1 3/3/1 4/4/1
f 4/4/1 3/3/1 5/5/1
f 5/5/1 3/3/1 6/6/1
f 5/5/1 6/6/1 7/7/1
f 5/5/1 7/7/1 8/8/1
f 8/8/1 7/7/1 9/9/1
f 8/8/1 9/9/1 10/10/1
f 8/13/3 12/12/2 11/11/2
f 12/12/2 8/13/3 10/14/3
f 13/16/5 10/14/4 9/15/4
f 10/14/4 13/16/5 12/12/6
f 7/19/8 15/18/7 14/17/7
f 15/18/7 7/19/8 6/20/8
f 13/16/9 7/22/10 14/21/9
f 7/22/10 13/16/9 9/15/10
f 5/25/12 11/24/11 16/23/11
f 11/24/11 5/25/12 8/26/12

usemtl blueSteel (Instance)
usemap blueSteel (Instance)
f 19/29/13 18/28/13 17/27/13
f 18/28/13 19/29/13 20/30/13
f 20/30/13 19/29/13 21/31/13
f 20/30/13 21/31/13 22/32/13
f 22/32/13 21/31/13 23/33/13
f 22/32/13 23/33/13 24/34/13
f 2/37/15 19/36/15 17/35/14
f 19/36/15 2/37/15 4/38/16
f 2/37/18 18/40/18 1/39/17
f 18/40/18 2/37/18 17/35/18
f 4/42/11 16/23/11 19/41/11
f 16/23/11 4/42/11 5/25/12
f 11/24/11 19/41/11 16/23/11
f 19/41/11 11/24/11 21/43/11
f 1/39/20 20/45/20 3/44/19
f 20/45/20 1/39/20 18/40/21
f 24/46/22 12/12/6 13/16/5
f 12/12/6 24/46/22 23/47/22
f 22/48/23 13/16/9 14/21/9
f 13/16/9 22/48/23 24/46/24
f 21/49/26 12/12/2 23/47/25
f 12/12/2 21/49/26 11/11/2
f 14/17/7 20/51/7 22/50/7
f 20/51/7 14/17/7 15/18/7
f 20/51/7 15/18/7 3/52/7
f 3/52/7 15/18/7 6/20/8
g ship_frontEdge_94

v -0.6 -0.1000001 0.8999999
v -0.6 -0.1000001 0.9999999
v 0.6000001 -0.1000001 0.8999999
v 0.6000001 -0.1000001 0.9999999
v -0.4841264 0.9 0.6
v 0.4841265 0.9 0.6
v -0.3 0.75 0.8612491
v 0.3000001 0.75 0.8612491
v 0.6000001 0.1199999 1
v -0.6 0.1199999 1
v 0.5200284 0.6583276 0.6239345
v 0.6000001 0.1199999 0.9
v -0.6 0.1199999 0.9
v -0.5200282 0.6583276 0.6239345
v 0.4841265 -0.1000001 0.5999999
v 0.4841265 0.1199999 0.5999999
v -0.4841264 -0.1000001 0.5999999
v -0.4841264 0.1199999 0.5999999
v 0.6000001 0.1199999 0.677249
v 0.6000001 -0.1000001 0.677249
v -0.6 -0.1000001 0.677249
v -0.6 0.1199999 0.677249
vn 0 -1 -1.192093E-07
vn 0 0.9087209 0.3339236
vn 0 0.1339187 0.7927939
vn 0 -1.192093E-07 0.8000001
vn 0 0.2654249 0.7713053
vn -0.8659932 0.4346905 0.4309987
vn 0.8659932 0.4346905 0.4309987
vn 1.190909 0.1228587 1.490116E-08
vn 1.190909 0.1228587 1.490116E-08
vn 1.195954 0.08204403 7.450581E-09
vn 1.198545 0.04923306 7.450581E-09
vn -1.198545 0.04923306 7.450581E-09
vn -1.197725 0.06154603 7.450581E-09
vn -1.2 0 0
vn 1.2 0 0
vn -1.190909 0.1228587 1.490116E-08
vn -1.190909 0.1228587 1.490116E-08
vn 0 1.192093E-07 -0.8000001
vn 1.19899 0.041022 3.72529E-09
vn 0.8485281 5.960464E-08 -0.5656855
vn 0.8485281 5.960464E-08 -0.5656855
vn 0.848528 5.960464E-08 -0.5656855
vn 0.848528 5.960464E-08 -0.5656855
vn -0.8485281 5.960464E-08 -0.5656855
vn -0.8485281 5.960464E-08 -0.5656855
vn -0.848528 5.960464E-08 -0.5656855
vn -0.848528 5.960464E-08 -0.5656855
vn -1.197725 0.06154601 7.450581E-09
vt 0.6 -0.8999999
vt 0.6 -0.9999999
vt -0.6000001 -0.8999999
vt -0.6000001 -0.9999999
vt 0.4841264 0.6
vt -0.4841265 0.6
vt 0.3 0.861249
vt -0.3000001 0.861249
vt 0.6000001 0.1199999
vt 0.6000001 -0.1000001
vt -0.6 0.1199999
vt -0.6 -0.1000001
vt 0.3000001 0.75
vt -0.3 0.75
vt -0.4841264 0.9
vt 0.4841265 0.9
vt -0.6 0.9
vt -0.6239346 0.6583276
vt -0.9999999 0.1199999
vt -0.9 0.1199999
vt 0.9 0.1199999
vt 0.9999999 0.1199999
vt 0.8999999 -0.1000001
vt 0.9999999 -0.1000001
vt -0.9999999 -0.1000001
vt -0.8999999 -0.1000001
vt 0.6 0.9
vt 0.6239346 0.6583276
vt -0.4841265 -0.1000001
vt -0.4841265 0.1199999
vt 0.4841264 -0.1000001
vt -0.4841265 0.9
vt 0.4841264 0.9
vt -0.4841264 0.1199999
vt -0.4841264 -0.1000001
vt -0.677249 0.1199999
vt -0.6772489 -0.1000001
vt -0.6000001 0.1199999
vt -0.6000001 -0.1000001
vt -0.5200284 0.6583276
vt 0.4841264 0.1199999
vt 0.6 -0.1000001
vt 0.6 0.1199999
vt 0.5200282 0.6583276
vt 0.677249 0.1199999
vt 0.6772489 -0.1000001
vt -0.4841265 -0.5999999
vt 0.4841264 -0.5999999
vt -0.6000001 -0.6772489
vt 0.6 -0.6772489

usemtl blueSteel (Instance) (Instance)
usemap blueSteel (Instance) (Instance)
f 27/55/27 26/54/27 25/53/27
f 26/54/27 27/55/27 28/56/27
f 31/59/28 30/58/28 29/57/28
f 30/58/28 31/59/28 32/60/28
f 34/63/29 28/62/30 33/61/29
f 28/62/30 34/63/29 26/64/30
f 32/65/31 34/63/29 33/61/29
f 34/63/29 32/65/31 31/66/31
f 34/63/32 31/66/32 29/67/32
f 33/61/33 30/68/33 32/65/33
f 33/71/36 35/70/35 30/69/34
f 35/70/35 33/71/36 36/72/37
f 25/75/40 34/74/39 37/73/38
f 34/74/39 25/75/40 26/76/40
f 28/77/41 36/72/37 33/71/36
f 36/72/37 28/77/41 27/78/41
f 38/80/43 34/74/39 29/79/42
f 34/74/39 38/80/43 37/73/38

usemtl _defaultMat (Instance) (Instance)
usemap _defaultMat (Instance) (Instance)
f 41/83/44 40/82/44 39/81/44
f 40/82/44 41/83/44 30/84/44
f 30/84/44 41/83/44 29/85/44
f 29/67/30 41/87/30 42/86/30
f 27/78/41 43/88/45 36/72/37
f 43/88/45 27/78/41 44/89/41
f 44/91/47 40/82/46 43/90/46
f 40/82/46 44/91/47 39/81/47
f 35/92/49 40/82/46 30/84/48
f 40/82/46 35/92/49 43/90/46
f 45/94/50 42/93/51 41/83/50
f 42/93/51 45/94/50 46/95/51
f 42/93/51 38/96/53 29/85/52
f 38/96/53 42/93/51 46/95/51
f 37/73/38 38/80/43 46/97/54
f 45/98/40 37/73/38 46/97/54
f 37/73/38 45/98/40 25/75/40
f 43/88/45 35/70/35 36/72/37
f 44/101/27 41/100/27 39/99/27
f 41/100/27 44/101/27 45/102/27
f 45/102/27 44/101/27 25/53/27
f 25/53/27 44/101/27 27/55/27
g ship_frontEdge_97

v 0.6000002 -0.1000001 0.0999999
v 0.6000002 -0.1000001 -1.192093E-07
v -0.6000001 -0.1000001 0.0999999
v -0.6000001 -0.1000001 -1.192093E-07
v 0.4841267 0.9 0.4
v -0.4841265 0.9 0.4
v 0.3000001 0.75 0.138751
v -0.3 0.75 0.138751
v -0.6000001 0.1199999 -8.940697E-08
v 0.6000002 0.1199999 -8.940697E-08
v -0.5200284 0.6583276 0.3760654
v -0.6000001 0.1199999 0.09999993
v 0.6000002 0.1199999 0.09999993
v 0.5200285 0.6583276 0.3760654
v -0.4841265 -0.1000001 0.3999999
v -0.4841265 0.1199999 0.3999999
v 0.4841267 -0.1000001 0.3999999
v 0.4841267 0.1199999 0.3999999
v -0.6000001 0.1199999 0.3227509
v -0.6000001 -0.1000001 0.3227509
v 0.6000002 -0.1000001 0.3227509
v 0.6000002 0.1199999 0.3227509
vn 0 0.9087209 -0.3339234
vn 0 0.1339187 -0.7927939
vn 0 -1.192093E-07 -0.8000001
vn 0 0.2654249 -0.7713053
vn 0.8659934 0.4346905 -0.4309986
vn -0.8659934 0.4346905 -0.4309986
vn -1.190909 0.1228587 1.490116E-08
vn -1.190909 0.1228587 1.490116E-08
vn -1.195955 0.08204403 7.450581E-09
vn -1.198545 0.04923306 7.450581E-09
vn 1.198545 0.04923306 7.450581E-09
vn 1.197725 0.06154603 7.450581E-09
vn 1.2 0 0
vn -1.2 0 0
vn 1.190909 0.1228587 1.490116E-08
vn 1.190909 0.1228587 1.490116E-08
vn 0 1.192093E-07 0.8000001
vn -1.19899 0.041022 3.72529E-09
vn -0.8485283 5.960464E-08 0.5656855
vn -0.8485284 5.960464E-08 0.5656855
vn -0.8485282 5.960464E-08 0.5656855
vn -0.8485283 5.960464E-08 0.5656855
vn 0.8485284 5.960464E-08 0.5656855
vn 0.8485283 5.960464E-08 0.5656855
vn 0.8485282 5.960464E-08 0.5656855
vn 0.8485283 5.960464E-08 0.5656855
vn 1.197725 0.06154601 7.450581E-09
vt -0.6000002 -0.09999989
vt -0.6000002 1.192093E-07
vt 0.6000001 -0.09999989
vt 0.6000001 1.192093E-07
vt -0.4841266 0.4
vt 0.4841265 0.4
vt -0.3000001 0.138751
vt 0.3 0.138751
vt -0.6000002 0.1199999
vt -0.6000002 -0.1000001
vt 0.3 0.75
vt -0.3000001 0.75
vt -0.4841266 0.9
vt 0.4841265 0.9
vt 0.4 0.9
vt 0.3760655 0.6583276
vt -9.298324E-08 0.1199999
vt 0.09999992 0.1199999
vt -0.09999992 0.1199999
vt 9.298324E-08 0.1199999
vt -0.09999989 -0.1000001
vt 1.192093E-07 -0.1000001
vt -1.192093E-07 -0.1000001
vt 0.09999989 -0.1000001
vt -0.4 0.9
vt -0.3760655 0.6583276
vt -0.4841265 -0.1000001
vt -0.4841265 0.1199999
vt 0.4841266 -0.1000001
vt -0.4841265 0.9
vt 0.4841266 0.9
vt 0.4841266 0.1199999
vt 0.3227509 0.1199999
vt 0.3227509 -0.1000001
vt 0.6000002 -0.1000001
vt 0.6000002 0.1199999
vt 0.5200285 0.6583276
vt -0.3227509 0.1199999
vt -0.3227509 -0.1000001
vt 0.4841265 -0.3999999
vt -0.4841266 -0.3999999
vt 0.6000001 -0.3227509
vt -0.6000002 -0.3227509

usemtl blueSteel (Instance) (Instance) (Instance)
usemap blueSteel (Instance) (Instance) (Instance)
f 49/105/27 48/104/27 47/103/27
f 48/104/27 49/105/27 50/106/27
f 53/109/55 52/108/55 51/107/55
f 52/108/55 53/109/55 54/110/55
f 56/111/56 50/62/57 55/61/56
f 50/62/57 56/111/56 48/112/57
f 54/113/58 56/111/56 55/61/56
f 56/111/56 54/113/58 53/114/58
f 56/111/59 53/114/59 51/115/59
f 55/61/60 52/116/60 54/113/60
f 55/119/63 57/118/62 52/117/61
f 57/118/62 55/119/63 58/120/64
f 47/123/67 56/122/66 59/121/65
f 56/122/66 47/123/67 48/124/67
f 50/125/68 58/120/64 55/119/63
f 58/120/64 50/125/68 49/126/68
f 60/128/70 56/122/66 51/127/69
f 56/122/66 60/128/70 59/121/65

usemtl _defaultMat (Instance) (Instance) (Instance)
usemap _defaultMat (Instance) (Instance) (Instance)
f 63/131/71 62/130/71 61/129/71
f 62/130/71 63/131/71 52/132/71
f 52/132/71 63/131/71 51/133/71
f 51/133/57 63/131/57 64/134/57
f 49/126/68 65/135/72 58/120/64
f 65/135/72 49/126/68 66/136/68
f 66/91/74 62/130/73 65/90/73
f 62/130/73 66/91/74 61/129/74
f 57/92/76 62/130/73 52/132/75
f 62/130/73 57/92/76 65/90/73
f 67/137/77 64/134/78 63/131/77
f 64/134/78 67/137/77 68/138/78
f 64/134/78 60/139/80 51/133/79
f 60/139/80 64/134/78 68/138/78
f 59/121/65 60/128/70 68/140/81
f 67/141/67 59/121/65 68/140/81
f 59/121/65 67/141/67 47/123/67
f 65/135/72 57/118/62 58/120/64
f 66/144/27 63/143/27 61/142/27
f 63/143/27 66/144/27 67/145/27
f 67/145/27 66/144/27 47/103/27
f 47/103/27 66/144/27 49/105/27
