# Made using Asset Forge (www.assetforge.io) version 1.3 

mtllib PictureFrame.mtl 

g block_rounded_49

v 0.1625 -1.4 3.5
v -0.0625 -1.4 3.5
v 0.1625 1.6 3.5
v -0.0625 1.6 3.5
v 0.2 1.6 -2.625
v 0.2 -1.4 -2.625
v 0.2 1.6 2.625
v 0.2 -1.4 2.625
v 0.1625 2.1 -2.625
v 0.1625 2.1 2.625
v -0.0625 2.1 -2.625
v -0.0625 2.1 2.625
v -0.0625 -1.4 -3.5
v 0.1625 -1.4 -3.5
v -0.0625 1.6 -3.5
v 0.1625 1.6 -3.5
v 0.1625 -1.9 2.625
v 0.1625 -1.9 -2.625
v -0.0625 -1.9 2.625
v -0.0625 -1.9 -2.625
v -0.1 -1.4 -2.625
v -0.1 1.6 -2.625
v -0.1 -1.4 2.625
v -0.1 1.6 2.625
vn 0 0 7
vn 0.3 0 0
vn 0 4 0
vn 0 0 -7
vn 0 -4 0
vn -0.3 0 0
vn 0.1732051 2.309401 -4.041452
vn 0.212132 0 -4.949748
vn 0 -2.828427 -4.949748
vn 0.1732051 -2.309401 -4.041452
vn 0.212132 -2.828427 0
vn 0.2121321 2.828427 0
vn 0.1732051 2.309401 4.041452
vn 0.212132 0 4.949748
vn 0.1732051 -2.309401 4.041452
vn 0 2.828427 4.949748
vn -0.1732051 2.309401 4.041452
vn -0.212132 -2.828427 0
vn 0 -2.828427 4.949748
vn -0.212132 0 4.949748
vn -0.1732051 -2.309401 4.041452
vn -0.1732051 -2.309401 -4.041452
vn -0.212132 0 -4.949748
vn -0.2121321 2.828427 0
vn 0 2.828427 -4.949748
vn -0.1732051 2.309401 -4.041452
vt 0.1625 -1.4
vt -0.0625 -1.4
vt 0.1625 1.6
vt -0.0625 1.6
vt 2.625 1.6
vt 2.625 -1.4
vt -2.625 1.6
vt -2.625 -1.4
vt -0.1625 -2.625
vt -0.1625 2.625
vt 0.0625 -2.625
vt 0.0625 2.625
vt 0.0625 -1.4
vt -0.1625 -1.4
vt 0.0625 1.6
vt -0.1625 1.6
vt -0.1625 -2.625
vt -0.1625 2.625
vt 0.0625 -2.625
vt 0.0625 2.625
vt -2.625 -1.4
vt -2.625 1.6
vt 2.625 -1.4
vt 2.625 1.6
vt 3.5 1.6
vt 2.625 2.1
vt 3.5 -1.4
vt -0.1625 3.5
vt 0.0625 3.5
vt 2.625 -1.9
vt -2.625 -1.9
vt -2.625 2.1
vt -3.5 1.6
vt -3.5 -1.4
vt -0.1625 3.5
vt 0.0625 3.5
vt 2.625 2.1
vt 3.5 1.6
vt -2.625 -1.9
vt 2.625 -1.9
vt -0.1625 -3.5
vt 0.0625 -3.5
vt 3.5 -1.4
vt -3.5 -1.4
vt -3.5 1.6
vt -2.625 2.1
vt -0.1625 -3.5
vt 0.0625 -3.5

usemtl _defaultMat (Instance)
usemap _defaultMat (Instance)
f 3/3/1 2/2/1 1/1/1
f 2/2/1 3/3/1 4/4/1
f 7/7/2 6/6/2 5/5/2
f 6/6/2 7/7/2 8/8/2
f 11/11/3 10/10/3 9/9/3
f 10/10/3 11/11/3 12/12/3
f 15/15/4 14/14/4 13/13/4
f 14/14/4 15/15/4 16/16/4
f 19/19/5 18/18/5 17/17/5
f 18/18/5 19/19/5 20/20/5
f 23/23/6 22/22/6 21/21/6
f 22/22/6 23/23/6 24/24/6
f 9/26/7 5/5/7 16/25/7
f 16/25/8 6/6/8 14/27/8
f 6/6/8 16/25/8 5/5/8
f 20/20/9 14/28/9 18/18/9
f 14/28/9 20/20/9 13/29/9
f 14/27/10 6/6/10 18/30/10
f 17/31/11 6/6/11 8/8/11
f 6/6/11 17/31/11 18/30/11
f 9/26/12 7/7/12 5/5/12
f 7/7/12 9/26/12 10/32/12
f 10/32/13 3/33/13 7/7/13
f 7/7/14 1/34/14 8/8/14
f 1/34/14 7/7/14 3/33/14
f 1/34/15 17/31/15 8/8/15
f 10/10/16 4/36/16 3/35/16
f 4/36/16 10/10/16 12/12/16
f 4/38/17 12/37/17 24/24/17
f 19/40/18 21/21/18 20/39/18
f 21/21/18 19/40/18 23/23/18
f 1/41/19 19/19/19 17/17/19
f 19/19/19 1/41/19 2/42/19
f 2/43/20 24/24/20 23/23/20
f 24/24/20 2/43/20 4/38/20
f 2/43/21 23/23/21 19/40/21
f 21/21/22 13/44/22 20/39/22
f 21/21/23 15/45/23 13/44/23
f 15/45/23 21/21/23 22/22/23
f 24/24/24 11/46/24 22/22/24
f 11/46/24 24/24/24 12/37/24
f 15/48/25 9/9/25 16/47/25
f 9/9/25 15/48/25 11/11/25
f 11/46/26 15/45/26 22/22/26
g block_rounded_54

v 0.25 -1.85 3.5
v -0.05 -1.85 3.5
v 0.25 -1.55 3.5
v -0.05 -1.55 3.5
v 0.3 -1.55 -2.625
v 0.3 -1.85 -2.625
v 0.3 -1.55 2.625
v 0.3 -1.85 2.625
v 0.25 -1.5 -2.625
v 0.25 -1.5 2.625
v -0.05 -1.5 -2.625
v -0.05 -1.5 2.625
v -0.05 -1.85 -3.5
v 0.25 -1.85 -3.5
v -0.05 -1.55 -3.5
v 0.25 -1.55 -3.5
v 0.25 -1.9 2.625
v 0.25 -1.9 -2.625
v -0.05 -1.9 2.625
v -0.05 -1.9 -2.625
v -0.1 -1.85 -2.625
v -0.1 -1.55 -2.625
v -0.1 -1.85 2.625
v -0.1 -1.55 2.625
vn 0.4 0 0
vn 0 0.4 0
vn 0 -0.4 0
vn -0.4 0 0
vn 0.2309401 0.2309401 -4.041452
vn 0.2828427 0 -4.949748
vn 0 -0.2828427 -4.949748
vn 0.2309401 -0.2309401 -4.041452
vn 0.2828427 -0.2828427 0
vn 0.2828428 0.2828427 0
vn 0.2309401 0.2309401 4.041452
vn 0.2828427 0 4.949748
vn 0.2309401 -0.2309401 4.041452
vn 0 0.2828427 4.949748
vn -0.2309401 0.2309401 4.041452
vn -0.2828427 -0.2828427 0
vn 0 -0.2828427 4.949748
vn -0.2828427 0 4.949748
vn -0.2309401 -0.2309401 4.041452
vn -0.2309401 -0.2309401 -4.041452
vn -0.2828427 0 -4.949748
vn -0.2828428 0.2828427 0
vn 0 0.2828427 -4.949748
vn -0.2309401 0.2309401 -4.041452
vt 0.25 -1.85
vt -0.05 -1.85
vt 0.25 -1.55
vt -0.05 -1.55
vt 2.625 -1.55
vt 2.625 -1.85
vt -2.625 -1.55
vt -2.625 -1.85
vt -0.25 -2.625
vt -0.25 2.625
vt 0.05 -2.625
vt 0.05 2.625
vt 0.05 -1.85
vt -0.25 -1.85
vt 0.05 -1.55
vt -0.25 -1.55
vt -0.25 -3.5
vt -0.3 -2.625
vt 3.5 -1.85
vt 3.5 -1.55
vt -0.25 3.5
vt 0.05 3.5
vt -0.3 2.625
vt -3.5 -1.85
vt -3.5 -1.55
vt 0.1 2.625
vt 0.1 -2.625
vt 0.05 -3.5

usemtl _defaultMat (Instance) (Instance)
usemap _defaultMat (Instance) (Instance)
f 27/51/1 26/50/1 25/49/1
f 26/50/1 27/51/1 28/52/1
f 31/55/27 30/54/27 29/53/27
f 30/54/27 31/55/27 32/56/27
f 35/59/28 34/58/28 33/57/28
f 34/58/28 35/59/28 36/60/28
f 39/63/4 38/62/4 37/61/4
f 38/62/4 39/63/4 40/64/4
f 43/59/29 42/58/29 41/57/29
f 42/58/29 43/59/29 44/60/29
f 47/54/30 46/55/30 45/56/30
f 46/55/30 47/54/30 48/53/30
f 33/57/31 29/66/31 40/65/31
f 40/68/32 30/54/32 38/67/32
f 30/54/32 40/68/32 29/53/32
f 44/60/33 38/69/33 42/58/33
f 38/69/33 44/60/33 37/70/33
f 38/69/34 30/71/34 42/58/34
f 41/57/35 30/71/35 32/66/35
f 30/71/35 41/57/35 42/58/35
f 33/57/36 31/71/36 29/66/36
f 31/71/36 33/57/36 34/58/36
f 34/58/37 27/69/37 31/71/37
f 31/55/38 25/72/38 32/56/38
f 25/72/38 31/55/38 27/73/38
f 25/65/39 41/57/39 32/66/39
f 34/58/40 28/70/40 27/69/40
f 28/70/40 34/58/40 36/60/40
f 28/70/41 36/60/41 48/74/41
f 43/59/42 45/74/42 44/60/42
f 45/74/42 43/59/42 47/75/42
f 25/65/43 43/59/43 41/57/43
f 43/59/43 25/65/43 26/76/43
f 26/67/44 48/53/44 47/54/44
f 48/53/44 26/67/44 28/68/44
f 26/76/45 47/75/45 43/59/45
f 45/74/46 37/70/46 44/60/46
f 45/56/47 39/73/47 37/72/47
f 39/73/47 45/56/47 46/55/47
f 48/74/48 35/59/48 46/75/48
f 35/59/48 48/74/48 36/60/48
f 39/76/49 33/57/49 40/65/49
f 33/57/49 39/76/49 35/59/49
f 35/59/50 39/76/50 46/75/50
g block_rounded_55

v 0.2375 1.75 3.5
v -0.1375 1.75 3.5
v 0.2375 2.05 3.5
v -0.1375 2.05 3.5
v 0.3 2.05 -2.625
v 0.3 1.75 -2.625
v 0.3 2.05 2.625
v 0.3 1.75 2.625
v 0.2375 2.1 -2.625
v 0.2375 2.1 2.625
v -0.1375 2.1 -2.625
v -0.1375 2.1 2.625
v -0.1375 1.75 -3.5
v 0.2375 1.75 -3.5
v -0.1375 2.05 -3.5
v 0.2375 2.05 -3.5
v 0.2375 1.7 2.625
v 0.2375 1.7 -2.625
v -0.1375 1.7 2.625
v -0.1375 1.7 -2.625
v -0.2 1.75 -2.625
v -0.2 2.05 -2.625
v -0.2 1.75 2.625
v -0.2 2.05 2.625
vn 0.5 0 0
vn -0.5 0 0
vn 0.2886752 0.2309401 -4.041452
vn 0.3535534 0 -4.949748
vn 0.2886751 -0.2309401 -4.041452
vn 0.3535534 -0.2828427 0
vn 0.3535534 0.2828427 0
vn 0.2886752 0.2309401 4.041452
vn 0.3535534 0 4.949748
vn 0.2886751 -0.2309401 4.041452
vn -0.2886752 0.2309401 4.041452
vn -0.3535534 -0.2828427 0
vn -0.3535534 0 4.949748
vn -0.2886751 -0.2309401 4.041452
vn -0.2886751 -0.2309401 -4.041452
vn -0.3535534 0 -4.949748
vn -0.3535534 0.2828427 0
vn -0.2886752 0.2309401 -4.041452
vt 0.2375 1.75
vt -0.1375 1.75
vt 0.2375 2.05
vt -0.1375 2.05
vt 2.625 2.05
vt 2.625 1.75
vt -2.625 2.05
vt -2.625 1.75
vt -0.2375 -2.625
vt -0.2375 2.625
vt 0.1375 -2.625
vt 0.1375 2.625
vt 0.1375 1.75
vt -0.2375 1.75
vt 0.1375 2.05
vt -0.2375 2.05
vt -0.2375 -3.5
vt 3.5 1.75
vt 3.5 2.05
vt -0.2375 3.5
vt 0.1375 3.5
vt -3.5 1.75
vt -3.5 2.05
vt 0.2 2.625
vt 0.2 -2.625
vt 0.1375 -3.5

usemtl _defaultMat (Instance) (Instance)
usemap _defaultMat (Instance) (Instance)
f 51/79/1 50/78/1 49/77/1
f 50/78/1 51/79/1 52/80/1
f 55/83/51 54/82/51 53/81/51
f 54/82/51 55/83/51 56/84/51
f 59/87/28 58/86/28 57/85/28
f 58/86/28 59/87/28 60/88/28
f 63/91/4 62/90/4 61/89/4
f 62/90/4 63/91/4 64/92/4
f 67/87/29 66/86/29 65/85/29
f 66/86/29 67/87/29 68/88/29
f 71/82/52 70/83/52 69/84/52
f 70/83/52 71/82/52 72/81/52
f 57/85/53 53/66/53 64/93/53
f 64/95/54 54/82/54 62/94/54
f 54/82/54 64/95/54 53/81/54
f 68/88/33 62/96/33 66/86/33
f 62/96/33 68/88/33 61/97/33
f 62/96/55 54/71/55 66/86/55
f 65/85/56 54/71/56 56/66/56
f 54/71/56 65/85/56 66/86/56
f 57/85/57 55/71/57 53/66/57
f 55/71/57 57/85/57 58/86/57
f 58/86/58 51/96/58 55/71/58
f 55/83/59 49/98/59 56/84/59
f 49/98/59 55/83/59 51/99/59
f 49/93/60 65/85/60 56/66/60
f 58/86/40 52/97/40 51/96/40
f 52/97/40 58/86/40 60/88/40
f 52/97/61 60/88/61 72/100/61
f 67/87/62 69/100/62 68/88/62
f 69/100/62 67/87/62 71/101/62
f 49/93/43 67/87/43 65/85/43
f 67/87/43 49/93/43 50/102/43
f 50/94/63 72/81/63 71/82/63
f 72/81/63 50/94/63 52/95/63
f 50/102/64 71/101/64 67/87/64
f 69/100/65 61/97/65 68/88/65
f 69/84/66 63/99/66 61/98/66
f 63/99/66 69/84/66 70/83/66
f 72/100/67 59/87/67 70/101/67
f 59/87/67 72/100/67 60/88/67
f 63/102/49 57/85/49 64/93/49
f 57/85/49 63/102/49 59/87/49
f 59/87/68 63/102/68 70/101/68
g block_rounded_56

v 0.2375 -1.85 3.25
v -0.1375 -1.85 3.25
v 0.2375 -1.85 3.55
v -0.1375 -1.85 3.55
v 0.3 1.5625 3.55
v 0.3 1.5625 3.25
v 0.3 -1.3625 3.55
v 0.3 -1.3625 3.25
v 0.2375 1.5625 3.6
v 0.2375 -1.3625 3.6
v -0.1375 1.5625 3.6
v -0.1375 -1.3625 3.6
v -0.1375 2.05 3.25
v 0.2375 2.05 3.25
v -0.1375 2.05 3.55
v 0.2375 2.05 3.55
v 0.2375 -1.3625 3.2
v 0.2375 1.5625 3.2
v -0.1375 -1.3625 3.2
v -0.1375 1.5625 3.2
v -0.2 1.5625 3.25
v -0.2 1.5625 3.55
v -0.2 -1.3625 3.25
v -0.2 -1.3625 3.55
vn 0 -3.900001 -4.768372E-07
vn 0 -5.960464E-08 0.4000001
vn 0 3.900001 4.768372E-07
vn 0 5.960464E-08 -0.4000001
vn 0.2886752 2.251667 0.2309403
vn 0.3535534 2.757717 2.384186E-07
vn 0 2.757717 -0.2828424
vn 0.2886751 2.251666 -0.2309399
vn 0.3535534 2.980232E-08 -0.2828428
vn 0.3535534 -2.980232E-08 0.2828427
vn 0.2886752 -2.251667 0.2309399
vn 0.3535534 -2.757717 -2.384186E-07
vn 0.2886751 -2.251666 -0.2309403
vn 0 -2.757717 0.2828424
vn -0.2886752 -2.251667 0.2309399
vn -0.3535534 2.980232E-08 -0.2828428
vn 0 -2.757717 -0.2828429
vn -0.3535534 -2.757717 -2.384186E-07
vn -0.2886751 -2.251666 -0.2309403
vn -0.2886751 2.251666 -0.2309399
vn -0.3535534 2.757717 2.384186E-07
vn -0.3535534 -2.980232E-08 0.2828427
vn 0 2.757717 0.2828429
vn -0.2886752 2.251667 0.2309403
vt -0.2375 -3.25
vt 0.1375 -3.25
vt -0.2375 -3.55
vt 0.1375 -3.55
vt -3.55 1.5625
vt -3.25 1.5625
vt -3.55 -1.3625
vt -3.25 -1.3625
vt 0.2375 1.5625
vt 0.2375 -1.3625
vt -0.1375 1.5625
vt -0.1375 -1.3625
vt 0.1375 3.25
vt -0.2375 3.25
vt 0.1375 3.55
vt -0.2375 3.55
vt -0.2375 -1.3625
vt -0.2375 1.5625
vt 0.1375 -1.3625
vt 0.1375 1.5625
vt 3.25 1.5625
vt 3.55 1.5625
vt 3.25 -1.3625
vt 3.55 -1.3625
vt 0.3 1.5625
vt -3.25 2.05
vt -3.55 2.05
vt -0.3 1.5625
vt -0.3 -1.3625
vt 0.3 -1.3625
vt 0.2375 -1.85
vt -3.25 -1.85
vt -3.55 -1.85
vt -0.2375 -1.85
vt -0.1375 -1.85
vt -0.2 -1.3625
vt 0.2 1.5625
vt 0.2 -1.3625
vt 0.1375 -1.85
vt 3.25 -1.85
vt 3.55 -1.85
vt 3.25 2.05
vt 3.55 2.05
vt -0.2 1.5625

usemtl _defaultMat (Instance) (Instance)
usemap _defaultMat (Instance) (Instance)
f 75/105/69 74/104/69 73/103/69
f 74/104/69 75/105/69 76/106/69
f 79/109/51 78/108/51 77/107/51
f 78/108/51 79/109/51 80/110/51
f 83/113/70 82/112/70 81/111/70
f 82/112/70 83/113/70 84/114/70
f 87/117/71 86/116/71 85/115/71
f 86/116/71 87/117/71 88/118/71
f 91/121/72 90/120/72 89/119/72
f 90/120/72 91/121/72 92/122/72
f 95/125/52 94/124/52 93/123/52
f 94/124/52 95/125/52 96/126/52
f 81/111/73 77/127/73 88/79/73
f 88/129/74 78/108/74 86/128/74
f 78/108/74 88/129/74 77/107/74
f 92/122/75 86/92/75 90/120/75
f 86/92/75 92/122/75 85/91/75
f 86/92/76 78/130/76 90/120/76
f 89/119/77 78/130/77 80/131/77
f 78/130/77 89/119/77 90/120/77
f 81/111/78 79/132/78 77/127/78
f 79/132/78 81/111/78 82/112/78
f 82/112/79 75/133/79 79/132/79
f 79/109/80 73/134/80 80/110/80
f 73/134/80 79/109/80 75/135/80
f 73/136/81 89/119/81 80/131/81
f 82/112/82 76/137/82 75/133/82
f 76/137/82 82/112/82 84/114/82
f 76/137/83 84/114/83 96/138/83
f 91/121/84 93/139/84 92/122/84
f 93/139/84 91/121/84 95/140/84
f 73/136/85 91/121/85 89/119/85
f 91/121/85 73/136/85 74/141/85
f 74/142/86 96/126/86 95/125/86
f 96/126/86 74/142/86 76/143/86
f 74/141/87 95/140/87 91/121/87
f 93/139/88 85/91/88 92/122/88
f 93/123/89 87/145/89 85/144/89
f 87/145/89 93/123/89 94/124/89
f 96/138/90 83/113/90 94/146/90
f 83/113/90 96/138/90 84/114/90
f 87/80/91 81/111/91 88/79/91
f 81/111/91 87/80/91 83/113/91
f 83/113/92 87/80/92 94/146/92
g block_rounded_57

v 0.2375 -1.85 -3.45
v -0.1375 -1.85 -3.45
v 0.2375 -1.85 -3.15
v -0.1375 -1.85 -3.15
v 0.3 1.5625 -3.15
v 0.3 1.5625 -3.45
v 0.3 -1.3625 -3.15
v 0.3 -1.3625 -3.45
v 0.2375 1.5625 -3.1
v 0.2375 -1.3625 -3.1
v -0.1375 1.5625 -3.1
v -0.1375 -1.3625 -3.1
v -0.1375 2.05 -3.45
v 0.2375 2.05 -3.45
v -0.1375 2.05 -3.15
v 0.2375 2.05 -3.15
v 0.2375 -1.3625 -3.5
v 0.2375 1.5625 -3.5
v -0.1375 -1.3625 -3.5
v -0.1375 1.5625 -3.5
v -0.2 1.5625 -3.45
v -0.2 1.5625 -3.15
v -0.2 -1.3625 -3.45
v -0.2 -1.3625 -3.15
vt -0.2375 3.45
vt 0.1375 3.45
vt -0.2375 3.15
vt 0.1375 3.15
vt 3.15 1.5625
vt 3.45 1.5625
vt 3.15 -1.3625
vt 3.45 -1.3625
vt 0.1375 -3.45
vt -0.2375 -3.45
vt 0.1375 -3.15
vt -0.2375 -3.15
vt -3.45 1.5625
vt -3.15 1.5625
vt -3.45 -1.3625
vt -3.15 -1.3625
vt 3.45 2.05
vt 3.15 2.05
vt 3.45 -1.85
vt 3.15 -1.85
vt -3.45 -1.85
vt -3.15 -1.85
vt -3.45 2.05
vt -3.15 2.05

usemtl _defaultMat (Instance) (Instance)
usemap _defaultMat (Instance) (Instance)
f 99/149/69 98/148/69 97/147/69
f 98/148/69 99/149/69 100/150/69
f 103/153/51 102/152/51 101/151/51
f 102/152/51 103/153/51 104/154/51
f 107/113/70 106/112/70 105/111/70
f 106/112/70 107/113/70 108/114/70
f 111/157/71 110/156/71 109/155/71
f 110/156/71 111/157/71 112/158/71
f 115/121/72 114/120/72 113/119/72
f 114/120/72 115/121/72 116/122/72
f 119/161/52 118/160/52 117/159/52
f 118/160/52 119/161/52 120/162/52
f 105/111/73 101/127/73 112/79/73
f 112/164/74 102/152/74 110/163/74
f 102/152/74 112/164/74 101/151/74
f 116/122/75 110/92/75 114/120/75
f 110/92/75 116/122/75 109/91/75
f 110/92/76 102/130/76 114/120/76
f 113/119/77 102/130/77 104/131/77
f 102/130/77 113/119/77 114/120/77
f 105/111/78 103/132/78 101/127/78
f 103/132/78 105/111/78 106/112/78
f 106/112/79 99/133/79 103/132/79
f 103/153/80 97/165/80 104/154/80
f 97/165/80 103/153/80 99/166/80
f 97/136/81 113/119/81 104/131/81
f 106/112/82 100/137/82 99/133/82
f 100/137/82 106/112/82 108/114/82
f 100/137/83 108/114/83 120/138/83
f 115/121/84 117/139/84 116/122/84
f 117/139/84 115/121/84 119/140/84
f 97/136/85 115/121/85 113/119/85
f 115/121/85 97/136/85 98/141/85
f 98/167/86 120/162/86 119/161/86
f 120/162/86 98/167/86 100/168/86
f 98/141/87 119/140/87 115/121/87
f 117/139/88 109/91/88 116/122/88
f 117/159/89 111/170/89 109/169/89
f 111/170/89 117/159/89 118/160/89
f 120/138/90 107/113/90 118/146/90
f 107/113/90 120/138/90 108/114/90
f 111/80/91 105/111/91 112/79/91
f 105/111/91 111/80/91 107/113/91
f 107/113/92 111/80/92 118/146/92
