# Made using Asset Forge (www.assetforge.io) version 1.3 

mtllib PictureFrameVertical.mtl 

v 0.4 -5.960464E-08 -5.960464E-08
v 0.4 1 5.960464E-08
v -0.4 -5.960464E-08 -5.960464E-08
v -0.4 1 5.960464E-08
v 0.4 1 0.1000001
v 0.4 -5.960464E-08 0.09999996
v -0.4 -5.960464E-08 0.09999996
v -0.4 1 0.1000001
vn 0 1.192093E-07 -1
vn 0.8 0 0
vn 0 -1 -1.192093E-07
vn -0.8 0 0
vn 0 1 1.192093E-07
vn 0 -1.192093E-07 1
vt -0.4 -5.960464E-08
vt -0.4 1
vt 0.4 -5.960464E-08
vt 0.4 1
vt -0.1000001 1
vt -5.960464E-08 1
vt -0.09999996 -7.152558E-08
vt 5.960464E-08 -5.960464E-08
vt -0.4 5.960464E-08
vt 0.4 5.960464E-08
vt -0.4 -0.09999996
vt 0.4 -0.09999996
vt 5.960464E-08 1
vt 0.1000001 1
vt -5.960464E-08 -5.960464E-08
vt 0.09999996 -7.152558E-08
vt 0.4 0.1000001
vt -0.4 0.1000001
vt 0.4 -7.152558E-08
vt -0.4 -7.152558E-08

usemtl wood (Instance) (Instance)
usemap wood (Instance) (Instance)
f 3/3/1 2/2/1 1/1/1
f 2/2/1 3/3/1 4/4/1
f 6/7/2 2/6/2 5/5/2
f 2/6/2 6/7/2 1/8/2
f 6/11/3 3/10/3 1/9/3
f 3/10/3 6/11/3 7/12/3
f 3/15/4 8/14/4 4/13/4
f 8/14/4 3/15/4 7/16/4
f 8/17/5 2/9/5 4/10/5
f 2/9/5 8/17/5 5/18/5

usemtl woodDark (Instance) (Instance)
usemap woodDark (Instance) (Instance)
f 8/2/6 6/19/6 5/4/6
f 6/19/6 8/2/6 7/20/6
v -0.09999999 0.5738739 0.03323299
v 0.06161156 0.5738738 0.03323299
v -0.09999999 0.580346 0.08389923
v 0.06161156 0.5803459 0.08389923
v -0.1000003 0.06610078 -0.430346
v 0.2232228 0.0661006 -0.430346
v -0.1000002 0.116767 -0.4238739
v 0.2232229 0.1167669 -0.4238739
v 0.06161154 0.5296796 0.07742715
v -0.1 0.5296797 0.07742715
v -0.1000003 0.07257286 -0.3796797
v 0.2232229 0.07257271 -0.3796797
v 0.2232229 0.1868494 -0.265403
v 0.06161142 0.3011262 -0.1511263
v 0.2218403 0.2017655 -0.2504869
v 0.2177161 0.2164264 -0.235826
v 0.210921 0.2305812 -0.2216712
v 0.2015711 0.2439877 -0.2082646
v 0.1898265 0.2564166 -0.1958357
v 0.175888 0.2676552 -0.1845971
v 0.1599943 0.2775112 -0.1747412
v 0.1424172 0.285816 -0.1664365
v 0.1234575 0.2924274 -0.1598251
v 0.1034396 0.2972323 -0.1550202
v 0.08270595 0.3001485 -0.1521039
v 0.06161144 0.3453203 -0.1953204
v 0.2232229 0.2310436 -0.3095972
v 0.2218403 0.2459596 -0.294681
v 0.2177161 0.2606205 -0.2800202
v 0.210921 0.2747754 -0.2658654
v 0.2015711 0.2881819 -0.2524588
v 0.1898265 0.3006108 -0.2400299
v 0.1758881 0.3118494 -0.2287913
v 0.1599943 0.3217054 -0.2189353
v 0.1424172 0.3300101 -0.2106306
v 0.1234575 0.3366215 -0.2040192
v 0.1034396 0.3414264 -0.1992143
v 0.08270597 0.3443427 -0.1962981
vn 3.559109E-07 0.5732232 0.07322349
vn 1.716955E-09 -0.07322341 -0.5732232
vn -1.716955E-09 0.07322341 0.5732232
vn -0.6464462 3.576279E-07 0
vn -3.559109E-07 -0.5732232 -0.07322349
vn -2.384186E-07 -0.3535533 0.3535532
vn 2.384186E-07 0.3535533 -0.3535532
vn 0.6464462 -3.576279E-07 0
vn 0.6462924 0.009969771 0.009970102
vn 0.6461001 0.0149557 0.01495604
vn 0.04227987 0.4561282 0.4561282
vn 0.07035899 0.4543913 0.4543914
vn 0.0983575 0.4517848 0.451785
vn 0.1536339 0.44401 0.4440102
vn 0.1809119 0.4388417 0.4388419
vn 0.2342803 0.4260316 0.4260318
vn 0.2603707 0.4183898 0.41839
vn 0.3109179 0.4007637 0.4007639
vn 0.3353746 0.3907793 0.3907796
vn 0.3822356 0.3686386 0.3686389
vn 0.4046399 0.3564825 0.3564827
vn 0.4571067 0.3232231 0.3232234
vn 0.5213338 0.2702812 0.2702815
vn 0.5041425 0.2861234 0.2861237
vn 0.5667655 0.2198517 0.219852
vn 0.5526454 0.2371453 0.2371457
vn 0.6024997 0.1656606 0.1656609
vn 0.5916927 0.1841093 0.1841097
vn 0.6279246 0.1086355 0.1086359
vn 0.6206156 0.1279237 0.1279241
vn 0.6426059 0.04975092 0.04975127
vn 0.6389199 0.06954914 0.06954948
vt 0.09999999 0.03323299
vt -0.06161156 0.03323299
vt 0.09999999 0.08389924
vt -0.06161156 0.08389924
vt 0.1000003 0.06610078
vt -0.2232228 0.06610058
vt 0.1000002 0.116767
vt -0.2232229 0.1167668
vt 0.06161153 0.5296796
vt -0.1 0.5296797
vt 0.06161156 0.5803459
vt -0.09999999 0.580346
vt 0.07742715 0.5296797
vt -0.3796797 0.07257287
vt 0.08389924 0.580346
vt -0.430346 0.06610078
vt 0.03323299 0.5738739
vt -0.4238739 0.116767
vt -0.2232228 0.430346
vt 0.1000003 0.430346
vt -0.2232228 0.3796797
vt 0.1000003 0.3796797
vt 0.2232228 0.07257268
vt -0.1000003 0.07257287
vt 0.2232229 0.1868494
vt -0.06161141 0.1511263
vt -0.2232229 0.265403
vt 0.1 -0.07742715
vt -0.2218403 0.2504869
vt -0.2177161 0.235826
vt 0.210921 0.2305812
vt 0.2177161 0.2164264
vt 0.06161141 0.3011262
vt -0.2015711 0.2082647
vt -0.210921 0.2216712
vt -0.1898264 0.1958358
vt 0.175888 0.2676553
vt 0.1898264 0.2564166
vt 0.1599943 0.2775112
vt -0.1424172 0.1664365
vt -0.1599943 0.1747412
vt 0.1234575 0.2924274
vt 0.1424172 0.285816
vt -0.1034396 0.1550202
vt -0.1234575 0.1598251
vt 0.08270594 0.3001485
vt 0.1034396 0.2972323
vt -0.06161153 -0.07742715
vt -0.2232229 -0.4238739
vt -0.06161144 -0.1953205
vt 0.1000002 -0.4238739
vt -0.2232229 -0.3095972
vt -0.2218403 0.2459597
vt -0.06161144 0.3453203
vt -0.2232229 0.2310435
vt -0.2177161 -0.2800202
vt -0.2218403 -0.2946811
vt -0.210921 0.2747754
vt -0.2177161 0.2606205
vt -0.2015711 -0.2524588
vt -0.210921 -0.2658654
vt -0.1898265 0.3006108
vt -0.2015711 0.2881819
vt -0.175888 0.3118494
vt -0.1599943 0.3217054
vt -0.1424172 -0.2106306
vt -0.1599943 -0.2189354
vt -0.1234575 0.3366215
vt -0.1424172 0.3300101
vt -0.1034396 -0.1992143
vt -0.1234575 -0.2040192
vt -0.08270597 0.3443427
vt -0.1034396 0.3414264
vt 0.3796797 0.07257268
vt 0.265403 0.1868494
vt 0.430346 0.06610058
vt 0.3095972 0.2310435
vt 0.4238739 0.1167668
vt 0.1511263 0.3011262
vt -0.07742715 0.5296796
vt 0.1953205 0.3453203
vt -0.08389924 0.5803459
vt -0.03323299 0.5738738
vt 0.06161144 0.3453203
vt 0.08270597 0.3443427
vt 0.1034396 0.3414264
vt 0.1234575 0.3366215
vt 0.1424172 0.3300101
vt 0.1599943 0.3217054
vt 0.1747412 0.2775112
vt 0.2189354 0.3217054
vt 0.1845972 0.2676553
vt 0.2287913 0.3118494
vt 0.1958358 0.2564166
vt 0.2400299 0.3006108
vt 0.2082647 0.2439878
vt 0.2524588 0.2881819
vt 0.2216712 0.2305812
vt 0.2658654 0.2747754
vt 0.235826 0.2164264
vt 0.2800202 0.2606205
vt 0.2504869 0.2017655
vt 0.2946811 0.2459597

usemtl wood (Instance) (Instance)
usemap wood (Instance) (Instance)
f 11/23/7 10/22/7 9/21/7
f 10/22/7 11/23/7 12/24/7
f 15/27/8 14/26/8 13/25/8
f 14/26/8 15/27/8 16/28/8
f 12/31/9 18/30/9 17/29/9
f 18/30/9 12/31/9 11/32/9
f 11/35/10 19/34/10 18/33/10
f 19/34/10 11/35/10 13/36/10
f 13/36/10 11/35/10 9/37/10
f 13/36/10 9/37/10 15/38/10
f 20/41/11 13/40/11 14/39/11
f 13/40/11 20/41/11 19/42/11
f 21/45/12 19/44/12 20/43/12
f 19/42/12 21/47/12 22/46/12
f 19/42/12 22/46/12 18/48/12
f 22/46/12 21/47/12 23/49/12
f 22/46/12 23/49/12 24/50/12
f 22/53/12 24/52/12 25/51/12
f 22/46/12 25/55/12 26/54/12
f 22/46/12 26/54/12 27/56/12
f 22/53/12 27/58/12 28/57/12
f 22/53/12 28/57/12 29/59/12
f 22/46/12 29/61/12 30/60/12
f 22/53/12 30/63/12 31/62/12
f 22/46/12 31/65/12 32/64/12
f 22/53/12 32/67/12 33/66/12
f 18/48/12 22/46/12 17/68/12
f 15/71/13 34/70/13 16/69/13
f 34/70/13 15/71/13 9/21/13
f 16/69/13 34/70/13 35/72/13
f 35/75/13 34/74/13 36/73/13
f 36/77/13 34/70/13 37/76/13
f 37/79/13 34/74/13 38/78/13
f 38/81/13 34/70/13 39/80/13
f 39/83/13 34/74/13 40/82/13
f 40/82/13 34/74/13 41/84/13
f 41/84/13 34/74/13 42/85/13
f 42/87/13 34/70/13 43/86/13
f 43/89/13 34/74/13 44/88/13
f 44/91/13 34/70/13 45/90/13
f 45/93/13 34/74/13 46/92/13
f 34/70/13 9/21/13 10/22/13
f 14/96/14 21/95/15 20/94/14
f 21/95/15 14/96/14 35/97/16
f 35/97/16 14/96/14 16/98/14
f 34/101/14 17/100/14 22/99/14
f 17/100/14 34/101/14 12/102/14
f 12/102/14 34/101/14 10/103/14
f 33/66/18 34/104/17 22/53/17
f 34/104/17 33/66/18 46/105/19
f 32/67/20 46/105/19 33/66/18
f 46/105/19 32/67/20 45/106/21
f 31/62/22 45/106/21 32/67/20
f 45/106/21 31/62/22 44/107/23
f 30/63/24 44/107/23 31/62/22
f 44/107/23 30/63/24 43/108/25
f 29/59/26 43/108/25 30/63/24
f 43/108/25 29/59/26 42/109/27
f 28/112/28 42/111/27 29/110/26
f 42/111/27 28/112/28 41/113/28
f 40/115/30 28/112/28 27/114/29
f 28/112/28 40/115/30 41/113/28
f 39/117/32 27/114/29 26/116/31
f 27/114/29 39/117/32 40/115/30
f 38/119/34 26/116/31 25/118/33
f 26/116/31 38/119/34 39/117/32
f 37/121/36 25/118/33 24/120/35
f 25/118/33 37/121/36 38/119/34
f 36/123/38 24/120/35 23/122/37
f 24/120/35 36/123/38 37/121/36
f 35/97/16 23/122/37 21/95/15
f 23/122/37 35/97/16 36/123/38
