# Made using Asset Forge (www.assetforge.io) version 1.3 

mtllib SquarePillow.mtl 

g block_rounded_58

v 1 1.25 5
v -0.8 1.25 5
v 1 8.75 5
v -0.8 8.75 5
v 1.3 8.75 -3.75
v 1.3 1.25 -3.75
v 1.3 8.75 3.75
v 1.3 1.25 3.75
v 1 10 -3.75
v 1 10 3.75
v -0.8 10 -3.75
v -0.8 10 3.75
v -0.8 1.25 -5
v 1 1.25 -5
v -0.8 8.75 -5
v 1 8.75 -5
v 1 9.023893E-16 3.75
v 1 9.023893E-16 -3.75
v -0.8 9.023893E-16 3.75
v -0.8 9.023893E-16 -3.75
v -1.1 1.25 -3.75
v -1.1 8.75 -3.75
v -1.1 1.25 3.75
v -1.1 8.75 3.75
vn 0 0 10
vn 2.4 0 0
vn 0 10 0
vn 0 0 -10
vn 0 -10 0
vn -2.4 0 0
vn 1.385641 5.773502 -5.773503
vn 1.697056 0 -7.071068
vn 0 -7.071068 -7.071068
vn 1.385641 -5.773502 -5.773502
vn 1.697056 -7.071068 0
vn 1.697057 7.071066 0
vn 1.385641 5.773502 5.773503
vn 1.697056 0 7.071068
vn 1.385641 -5.773502 5.773502
vn 0 7.071066 7.071069
vn -1.385641 5.773502 5.773503
vn -1.697056 -7.071068 0
vn 0 -7.071068 7.071068
vn -1.697056 0 7.071068
vn -1.385641 -5.773502 5.773502
vn -1.385641 -5.773502 -5.773502
vn -1.697056 0 -7.071068
vn -1.697057 7.071066 0
vn 0 7.071066 -7.071069
vn -1.385641 5.773502 -5.773503
vt 1 1.25
vt -0.8 1.25
vt 1 8.75
vt -0.8 8.75
vt 3.75 8.75
vt 3.75 1.25
vt -3.75 8.75
vt -3.75 1.25
vt -1 -3.75
vt -1 3.75
vt 0.8 -3.75
vt 0.8 3.75
vt 0.8 1.25
vt -1 1.25
vt 0.8 8.75
vt -1 8.75
vt 5 8.75
vt 3.75 10
vt 5 1.25
vt -1 9.023893E-16
vt 0.8 9.023893E-16
vt 3.75 9.023893E-16
vt -3.75 9.023893E-16
vt -3.75 10
vt -5 8.75
vt -5 1.25
vt 1 10
vt -0.8 10
vt 1 9.023893E-16
vt -0.8 9.023893E-16
vt -1 10
vt 0.8 10

usemtl _defaultMat (Instance)
usemap _defaultMat (Instance)
f 3/3/1 2/2/1 1/1/1
f 2/2/1 3/3/1 4/4/1
f 7/7/2 6/6/2 5/5/2
f 6/6/2 7/7/2 8/8/2
f 11/11/3 10/10/3 9/9/3
f 10/10/3 11/11/3 12/12/3
f 15/15/4 14/14/4 13/13/4
f 14/14/4 15/15/4 16/16/4
f 19/11/5 18/10/5 17/9/5
f 18/10/5 19/11/5 20/12/5
f 23/6/6 22/7/6 21/8/6
f 22/7/6 23/6/6 24/5/6
f 9/18/7 5/5/7 16/17/7
f 16/17/8 6/6/8 14/19/8
f 6/6/8 16/17/8 5/5/8
f 20/21/9 14/14/9 18/20/9
f 14/14/9 20/21/9 13/13/9
f 14/19/10 6/6/10 18/22/10
f 17/23/11 6/6/11 8/8/11
f 6/6/11 17/23/11 18/22/11
f 9/18/12 7/7/12 5/5/12
f 7/7/12 9/18/12 10/24/12
f 10/24/13 3/25/13 7/7/13
f 7/7/14 1/26/14 8/8/14
f 1/26/14 7/7/14 3/25/14
f 1/26/15 17/23/15 8/8/15
f 10/27/16 4/4/16 3/3/16
f 4/4/16 10/27/16 12/28/16
f 4/17/17 12/18/17 24/5/17
f 19/22/18 21/8/18 20/23/18
f 21/8/18 19/22/18 23/6/18
f 1/1/19 19/30/19 17/29/19
f 19/30/19 1/1/19 2/2/19
f 2/19/20 24/5/20 23/6/20
f 24/5/20 2/19/20 4/17/20
f 2/19/21 23/6/21 19/22/21
f 21/8/22 13/26/22 20/23/22
f 21/8/23 15/25/23 13/26/23
f 15/25/23 21/8/23 22/7/23
f 24/5/24 11/24/24 22/7/24
f 11/24/24 24/5/24 12/18/24
f 15/15/25 9/31/25 16/16/25
f 9/31/25 15/15/25 11/32/25
f 11/24/26 15/25/26 22/7/26
g block_piramid_61

v 1 0.06360394 3.713604
v 0.9999999 1.336396 4.986396
v -0.7999999 0.06360382 3.713604
v -0.8 1.336396 4.986396
v 0.1 -0.5727921 5.622792
vn -4.608995E-08 1.272792 -1.272792
vn -1.609969 -0.5692101 0.5692099
vn 1.201359E-07 -1.70763 -0.5692098
vn -7.891177E-08 0.5692101 1.70763
vn 1.609969 -0.5692098 0.5692101
vt -1 0.06360393
vt -0.9999999 1.336396
vt 0.7999999 0.06360383
vt 0.8 1.336396
vt 4.986396 1.336396
vt 5.622792 -0.5727921
vt 3.713604 0.06360383
vt -1 -3.713604
vt 0.7999999 -3.713604
vt -0.1 -5.622792
vt -0.8 1.336396
vt 0.9999999 1.336396
vt 0.1 -0.5727921
vt -5.622792 -0.5727921
vt -4.986396 1.336396
vt -3.713604 0.06360393

usemtl _defaultMat (Instance) (Instance)
usemap _defaultMat (Instance) (Instance)
f 27/35/27 26/34/27 25/33/27
f 26/34/27 27/35/27 28/36/27
f 27/39/28 29/38/28 28/37/28
f 29/42/29 27/41/29 25/40/29
f 29/45/30 26/44/30 28/43/30
f 25/48/31 26/47/31 29/46/31
g block_piramid_62

v 1 8.763603 4.986396
v 1 10.0364 3.713604
v -0.8 8.763603 4.986396
v -0.8 10.0364 3.713604
v 0.1 10.67279 5.622792
vn 0 -1.272792 -1.272792
vn -1.609969 0.5692099 0.56921
vn 0 -0.5692101 1.70763
vn 0 1.70763 -0.5692098
vn 1.609969 0.5692099 0.56921
vt -1 8.763603
vt -1 10.0364
vt 0.8 8.763603
vt 0.8 10.0364
vt 3.713604 10.0364
vt 5.622792 10.67279
vt 4.986396 8.763603
vt 1 8.763603
vt -0.8 8.763603
vt 0.1 10.67279
vt 0.8 3.713604
vt -1 3.713604
vt -0.1 5.622792
vt -5.622792 10.67279
vt -3.713604 10.0364
vt -4.986396 8.763603

usemtl _defaultMat (Instance) (Instance)
usemap _defaultMat (Instance) (Instance)
f 32/51/32 31/50/32 30/49/32
f 31/50/32 32/51/32 33/52/32
f 32/55/33 34/54/33 33/53/33
f 34/58/34 32/57/34 30/56/34
f 34/61/35 31/60/35 33/59/35
f 30/64/36 31/63/36 34/62/36
g block_piramid_63

v 1 10.0364 -3.713603
v 1 8.763604 -4.986396
v -0.8 10.0364 -3.713603
v -0.8 8.763604 -4.986396
v 0.1 10.67279 -5.622791
vn 0 -1.272793 1.272792
vn -1.609969 0.5692102 -0.5692097
vn 0 1.70763 0.5692108
vn 0 -0.5692092 -1.70763
vn 1.609969 0.5692102 -0.5692097
vt -1 3.713603
vt -1 4.986396
vt 0.8 3.713603
vt 0.8 4.986396
vt -4.986396 8.763604
vt -5.622791 10.67279
vt -3.713603 10.0364
vt -1 -3.713603
vt 0.8 -3.713603
vt -0.1 -5.622791
vt 0.8 8.763604
vt -1 8.763604
vt -0.1 10.67279
vt 5.622791 10.67279
vt 4.986396 8.763604
vt 3.713603 10.0364

usemtl _defaultMat (Instance) (Instance)
usemap _defaultMat (Instance) (Instance)
f 37/67/37 36/66/37 35/65/37
f 36/66/37 37/67/37 38/68/37
f 37/71/38 39/70/38 38/69/38
f 39/74/39 37/73/39 35/72/39
f 39/77/40 36/76/40 38/75/40
f 35/80/41 36/79/41 39/78/41
g block_piramid_64

v 1 1.336396 -4.986395
v 1 0.0636031 -3.713604
v -0.8 1.336396 -4.986395
v -0.8 0.0636031 -3.713604
v 0.1 -0.5727913 -5.622793
vn 0 1.272791 1.272793
vn -1.609969 -0.5692096 -0.5692105
vn 0 0.5692115 -1.70763
vn 0 -1.707631 0.5692086
vn 1.609969 -0.5692096 -0.5692105
vt 1 1.336396
vt 1 0.0636031
vt -0.8 1.336396
vt -0.8 0.0636031
vt -3.713604 0.0636031
vt -5.622793 -0.5727913
vt -4.986395 1.336396
vt -1 1.336396
vt 0.8 1.336396
vt -0.1 -0.5727913
vt 0.8 3.713604
vt -1 3.713604
vt -0.1 5.622793
vt 5.622793 -0.5727913
vt 3.713604 0.0636031
vt 4.986395 1.336396

usemtl _defaultMat (Instance) (Instance) (Instance)
usemap _defaultMat (Instance) (Instance) (Instance)
f 42/83/42 41/82/42 40/81/42
f 41/82/42 42/83/42 43/84/42
f 42/87/43 44/86/43 43/85/43
f 44/90/44 42/89/44 40/88/44
f 44/93/45 41/92/45 43/91/45
f 40/96/46 41/95/46 44/94/46
g block_default_65

v 0.9 9.1 4
v 0.9 9.1 -4
v -0.7 9.1 4
v -0.7 9.1 -4
v -0.7 10.1 -4
v -0.7 10.1 4
v 0.9 10.1 -4
v 0.9 10.1 4
vn 0 -1 0
vn -1.6 0 0
vn 0 0 -8
vn 0 0 8
vn 1.6 0 0
vn 0 1 0
vt -0.9 -4
vt -0.9 4
vt 0.7 -4
vt 0.7 4
vt -4 9.1
vt -4 10.1
vt 4 9.1
vt 4 10.1
vt 0.7 9.1
vt -0.9 9.1
vt 0.7 10.1
vt -0.9 10.1
vt 0.9 9.1
vt -0.7 9.1
vt 0.9 10.1
vt -0.7 10.1

usemtl _defaultMat (Instance) (Instance)
usemap _defaultMat (Instance) (Instance)
f 47/99/47 46/98/47 45/97/47
f 46/98/47 47/99/47 48/100/47
f 47/103/48 49/102/48 48/101/48
f 49/102/48 47/103/48 50/104/48
f 49/107/49 46/106/49 48/105/49
f 46/106/49 49/107/49 51/108/49
f 52/111/50 47/110/50 45/109/50
f 47/110/50 52/111/50 50/112/50
f 52/102/51 46/103/51 51/104/51
f 46/103/51 52/102/51 45/101/51
f 49/99/52 52/98/52 51/97/52
f 52/98/52 49/99/52 50/100/52
