# Made using Asset Forge (www.assetforge.io) version 1.3 

mtllib SurfTrophy.mtl 

g cylinder_full_110

v 0.8593267 1 -0.475
v 0.8593267 0 -0.475
v 0.964222 1 -0.22176
v 0.964222 0 -0.22176
v 0.9999999 1 0.05
v 0.9999999 0 0.05
v 0.964222 1 0.32176
v 0.964222 0 0.32176
v 0.8593267 1 0.575
v 0.8593267 0 0.575
v 0.6924621 0 -0.6924621
v 0.6924621 1 -0.6924621
v 0.6924621 1 0.7924621
v 0.6924621 0 0.7924621
v 0.475 0 0.9593267
v 0.475 1 0.9593267
v 0.22176 0 1.064222
v 0.22176 1 1.064222
v -0.05 0 1.1
v -0.05 1 1.1
v -0.32176 0 1.064222
v -0.32176 1 1.064222
v 0.475 1 -0.8593267
v 0.475 0 -0.8593267
v 0.22176 1 -0.964222
v 0.22176 0 -0.964222
v -0.05 1 -0.9999999
v -0.05 0 -0.9999999
v -0.32176 1 -0.964222
v -0.32176 0 -0.964222
v -0.575 0 0.9593267
v -0.575 1 0.9593267
v -0.7924621 0 0.7924621
v -0.7924621 1 0.7924621
v -0.9593267 1 0.575
v -0.9593267 0 0.575
v -1.064222 1 0.32176
v -1.064222 0 0.32176
v -1.1 1 0.05
v -1.1 0 0.05
v -1.064222 1 -0.22176
v -1.064222 0 -0.22176
v -0.9593267 1 -0.475
v -0.9593267 0 -0.475
v -0.7924621 1 -0.6924621
v -0.7924621 0 -0.6924621
v -0.575 0 -0.8593267
v -0.575 1 -0.8593267
vn 1.770871 0 -1.128724
vn 1.862939 0 -0.9692569
vn 2.002665 0 -0.6319283
vn 2.050323 0 -0.4540663
vn 2.097981 0 -0.09206816
vn 2.097981 0 0.09206816
vn 2.050323 0 0.4540663
vn 2.002665 0 0.6319283
vn 1.862939 0 0.9692569
vn 1.770871 0 1.128724
vn 1.484924 0 -1.484924
vn 1.484924 0 -1.484924
vn 1.484924 0 1.484924
vn 1.484924 0 1.484924
vn 1.128724 0 1.770871
vn 0.9692569 0 1.862939
vn 0.6319283 0 2.002665
vn 0.4540663 0 2.050323
vn 0.09206816 0 2.097981
vn -0.09206816 0 2.097981
vn -0.4540663 0 2.050323
vn -0.6319283 0 2.002665
vn 1.128724 0 -1.770871
vn 0.9692569 0 -1.862939
vn 0.6319283 0 -2.002665
vn 0.4540663 0 -2.050323
vn 0.09206816 0 -2.097981
vn -0.09206816 0 -2.097981
vn -0.4540663 0 -2.050323
vn -0.6319283 0 -2.002665
vn -0.9692569 0 1.862939
vn -1.128724 0 1.770871
vn -1.484924 0 1.484924
vn -1.484924 0 1.484924
vn -1.770871 0 1.128724
vn -1.862939 0 0.9692569
vn -2.002665 0 0.6319283
vn -2.050323 0 0.4540663
vn -2.097981 0 0.09206816
vn -2.097981 0 -0.09206816
vn -2.050323 0 -0.4540663
vn -2.002665 0 -0.6319283
vn -1.862939 0 -0.9692569
vn -1.770871 0 -1.128724
vn -1.484924 0 -1.484924
vn -1.484924 0 -1.484924
vn -1.128724 0 -1.770871
vn -0.9692569 0 -1.862939
vn 0 -1 0
vn 0 1 0
vt 0.475 1
vt 0.475 0
vt 0.22176 1
vt 0.22176 0
vt -0.05 1
vt -0.05 0
vt -0.32176 1
vt -0.32176 0
vt -0.575 1
vt -0.575 0
vt 0.6924621 0
vt 0.6924621 1
vt -0.7924621 1
vt -0.7924621 0
vt -0.6924621 1
vt -0.475 1
vt -0.6924621 0
vt -0.475 0
vt -0.22176 1
vt -0.22176 0
vt 0.05 1
vt 0.05 0
vt 0.32176 1
vt 0.32176 0
vt 0.7924621 1
vt 0.7924621 0
vt 0.575 1
vt 0.575 0
vt -0.9999999 -0.05
vt -0.9642221 0.22176
vt -0.9642221 -0.32176
vt -0.8593267 0.475
vt -0.8593267 -0.575
vt -0.6924621 0.6924621
vt -0.6924621 -0.7924621
vt -0.475 0.8593267
vt -0.475 -0.9593267
vt -0.22176 0.9642221
vt -0.22176 -1.064222
vt 0.05 -1.1
vt 0.05 0.9999999
vt 0.32176 -1.064222
vt 0.32176 0.9642221
vt 0.575 0.8593267
vt 0.575 -0.9593267
vt 0.7924621 0.6924621
vt 0.7924621 -0.7924621
vt 0.9593267 0.475
vt 0.9593267 -0.575
vt 1.064222 0.22176
vt 1.064222 -0.32176
vt 1.1 -0.05
vt -0.9999999 0.05
vt -0.9642221 0.32176
vt -0.9642221 -0.22176
vt -0.8593267 -0.475
vt -0.8593267 0.575
vt -0.6924621 -0.6924621
vt -0.6924621 0.7924621
vt -0.475 -0.8593267
vt -0.475 0.9593267
vt -0.22176 -0.9642221
vt -0.22176 1.064222
vt 0.05 -0.9999999
vt 0.05 1.1
vt 0.32176 -0.9642221
vt 0.32176 1.064222
vt 0.575 -0.8593267
vt 0.575 0.9593267
vt 0.7924621 -0.6924621
vt 0.7924621 0.7924621
vt 0.9593267 -0.475
vt 0.9593267 0.575
vt 1.064222 -0.22176
vt 1.064222 0.32176
vt 1.1 0.05

usemtl _defaultMat (Instance)
usemap _defaultMat (Instance)
f 3/3/3 2/2/2 1/1/1
f 2/2/2 3/3/3 4/4/4
f 5/5/5 4/4/4 3/3/3
f 4/4/4 5/5/5 6/6/6
f 7/7/7 6/6/6 5/5/5
f 6/6/6 7/7/7 8/8/8
f 9/9/9 8/8/8 7/7/7
f 8/8/8 9/9/9 10/10/10
f 11/11/11 1/1/1 2/2/2
f 1/1/1 11/11/11 12/12/12
f 13/13/13 10/10/10 9/9/9
f 10/10/10 13/13/13 14/14/14
f 13/12/13 15/2/15 14/11/14
f 15/2/15 13/12/13 16/1/16
f 16/1/16 17/4/17 15/2/15
f 17/4/17 16/1/16 18/3/18
f 18/3/18 19/6/19 17/4/17
f 19/6/19 18/3/18 20/5/20
f 20/5/20 21/8/21 19/6/19
f 21/8/21 20/5/20 22/7/22
f 11/17/11 23/16/23 12/15/12
f 23/16/23 11/17/11 24/18/24
f 24/18/24 25/19/25 23/16/23
f 25/19/25 24/18/24 26/20/26
f 26/20/26 27/21/27 25/19/25
f 27/21/27 26/20/26 28/22/28
f 28/22/28 29/23/29 27/21/27
f 29/23/29 28/22/28 30/24/30
f 22/7/22 31/10/31 21/8/21
f 31/10/31 22/7/22 32/9/32
f 32/9/32 33/14/33 31/10/31
f 33/14/33 32/9/32 34/13/34
f 35/27/35 33/26/33 34/25/34
f 33/26/33 35/27/35 36/28/36
f 37/23/37 36/28/36 35/27/35
f 36/28/36 37/23/37 38/24/38
f 39/21/39 38/24/38 37/23/37
f 38/24/38 39/21/39 40/22/40
f 41/19/41 40/22/40 39/21/39
f 40/22/40 41/19/41 42/20/42
f 43/16/43 42/20/42 41/19/41
f 42/20/42 43/16/43 44/18/44
f 45/15/45 44/18/44 43/16/43
f 44/18/44 45/15/45 46/17/46
f 45/25/45 47/28/47 46/26/46
f 47/28/47 45/25/45 48/27/48
f 48/27/48 30/24/30 47/28/47
f 30/24/30 48/27/48 29/23/29
f 8/31/49 4/30/49 6/29/49
f 4/30/49 8/31/49 2/32/49
f 2/32/49 8/31/49 10/33/49
f 2/32/49 10/33/49 11/34/49
f 11/34/49 10/33/49 14/35/49
f 11/34/49 14/35/49 24/36/49
f 24/36/49 14/35/49 15/37/49
f 24/36/49 15/37/49 26/38/49
f 26/38/49 15/37/49 17/39/49
f 26/38/49 17/39/49 19/40/49
f 26/38/49 19/40/49 28/41/49
f 28/41/49 19/40/49 21/42/49
f 28/41/49 21/42/49 30/43/49
f 30/43/49 21/42/49 47/44/49
f 47/44/49 21/42/49 31/45/49
f 47/44/49 31/45/49 46/46/49
f 46/46/49 31/45/49 33/47/49
f 46/46/49 33/47/49 44/48/49
f 44/48/49 33/47/49 36/49/49
f 44/48/49 36/49/49 42/50/49
f 42/50/49 36/49/49 38/51/49
f 42/50/49 38/51/49 40/52/49
f 3/55/50 7/54/50 5/53/50
f 7/54/50 3/55/50 1/56/50
f 7/54/50 1/56/50 9/57/50
f 9/57/50 1/56/50 12/58/50
f 9/57/50 12/58/50 13/59/50
f 13/59/50 12/58/50 23/60/50
f 13/59/50 23/60/50 16/61/50
f 16/61/50 23/60/50 25/62/50
f 16/61/50 25/62/50 18/63/50
f 18/63/50 25/62/50 27/64/50
f 18/63/50 27/64/50 20/65/50
f 20/65/50 27/64/50 29/66/50
f 20/65/50 29/66/50 22/67/50
f 22/67/50 29/66/50 48/68/50
f 22/67/50 48/68/50 32/69/50
f 32/69/50 48/68/50 45/70/50
f 32/69/50 45/70/50 34/71/50
f 34/71/50 45/70/50 43/72/50
f 34/71/50 43/72/50 35/73/50
f 35/73/50 43/72/50 41/74/50
f 35/73/50 41/74/50 37/75/50
f 37/75/50 41/74/50 39/76/50
g cylinder_half_111

v 0.8593267 0.7 -0.5499999
v 0.8593267 0.3 -0.5499999
v 0.964222 0.7 -0.2847008
v 0.964222 0.3 -0.2847008
v 0.9999999 0.7 1.19E-07
v 0.9999999 0.3 1.19E-07
v 0.6924621 0.3 -0.7778174
v 0.6924621 0.7 -0.7778174
v 0.475 0.7 -0.9526279
v 0.475 0.3 -0.9526279
v 0.22176 0.7 -1.062518
v 0.22176 0.3 -1.062518
v -0.05 0.7 -1.1
v -0.05 0.3 -1.1
v -0.32176 0.7 -1.062518
v -0.32176 0.3 -1.062518
v -0.575 0.7 -0.9526279
v -0.575 0.3 -0.9526279
v -0.7924621 0.7 -0.7778174
v -0.7924621 0.3 -0.7778174
v -0.9593267 0.3 -0.5499999
v -0.9593267 0.7 -0.5499999
v -1.064222 0.3 -0.2847008
v -1.064222 0.7 -0.2847008
v -1.1 0.3 1.19E-07
v -1.1 0.7 1.19E-07
vn 1.770871 0 -1.182473
vn 1.862939 0 -1.015412
vn 2.002665 0 -0.6620201
vn 2.050323 0 -0.4756885
vn 2.082034 0 -0.2871577
vn 1.484924 0 -1.555635
vn 1.484924 0 -1.555635
vn 1.128724 0 -1.855198
vn 0.9692569 0 -1.95165
vn 0.6319283 0 -2.09803
vn 0.4540663 0 -2.147957
vn 0.09206816 0 -2.197885
vn -0.09206816 0 -2.197885
vn -0.4540663 0 -2.147957
vn -0.6319283 0 -2.09803
vn -0.9692569 0 -1.95165
vn -1.128724 0 -1.855198
vn -1.484924 0 -1.555635
vn -1.484924 0 -1.555635
vn -1.770871 0 -1.182473
vn -1.862939 0 -1.015412
vn -2.002665 0 -0.6620201
vn -2.050323 0 -0.4756885
vn -2.082034 0 -0.2871577
vn 0 -0.4 0
vn 0 0.4 0
vn 0 0 2.2
vt 0.5499999 0.7
vt 0.5499999 0.3
vt 0.2847008 0.7
vt 0.2847008 0.3
vt -1.19E-07 0.7
vt -1.19E-07 0.3
vt 0.7778174 0.3
vt 0.7778174 0.7
vt -0.6924621 0.7
vt -0.475 0.7
vt -0.6924621 0.3
vt -0.475 0.3
vt -0.22176 0.7
vt -0.22176 0.3
vt 0.05 0.7
vt 0.05 0.3
vt 0.32176 0.7
vt 0.32176 0.3
vt 0.575 0.7
vt 0.575 0.3
vt 0.7924621 0.7
vt 0.7924621 0.3
vt -0.7778174 0.3
vt -0.7778174 0.7
vt -0.5499999 0.3
vt -0.5499999 0.7
vt -0.2847008 0.3
vt -0.2847008 0.7
vt 1.19E-07 0.3
vt 1.19E-07 0.7
vt -0.9999999 -1.19E-07
vt -0.9642221 0.2847008
vt 1.1 -1.19E-07
vt -0.8593267 0.5499999
vt -0.6924621 0.7778174
vt -0.475 0.9526279
vt -0.22176 1.062518
vt 0.32176 1.062518
vt 0.575 0.9526279
vt 0.7924621 0.7778174
vt 0.9593267 0.5499999
vt 1.064222 0.2847008
vt -0.9999999 1.19E-07
vt 1.1 1.19E-07
vt -0.9642221 -0.2847008
vt -0.8593267 -0.5499999
vt -0.6924621 -0.7778174
vt -0.475 -0.9526279
vt -0.22176 -1.062518
vt 0.32176 -1.062518
vt 0.575 -0.9526279
vt 0.7924621 -0.7778174
vt 0.9593267 -0.5499999
vt 1.064222 -0.2847008
vt 0.9999999 0.3
vt -1.1 0.3
vt 0.9999999 0.7
vt -1.1 0.7

usemtl _defaultMat (Instance) (Instance)
usemap _defaultMat (Instance) (Instance)
f 51/79/53 50/78/52 49/77/51
f 50/78/52 51/79/53 52/80/54
f 53/81/55 52/80/54 51/79/53
f 52/80/54 53/81/55 54/82/55
f 55/83/56 49/77/51 50/78/52
f 49/77/51 55/83/56 56/84/57
f 55/87/56 57/86/58 56/85/57
f 57/86/58 55/87/56 58/88/59
f 58/88/59 59/89/60 57/86/58
f 59/89/60 58/88/59 60/90/61
f 60/90/61 61/91/62 59/89/60
f 61/91/62 60/90/61 62/92/63
f 62/92/63 63/93/64 61/91/62
f 63/93/64 62/92/63 64/94/65
f 64/94/65 65/95/66 63/93/64
f 65/95/66 64/94/65 66/96/67
f 66/96/67 67/97/68 65/95/66
f 67/97/68 66/96/67 68/98/69
f 69/101/70 67/100/68 68/99/69
f 67/100/68 69/101/70 70/102/71
f 71/103/72 70/102/71 69/101/70
f 70/102/71 71/103/72 72/104/73
f 73/105/74 72/104/73 71/103/72
f 72/104/73 73/105/74 74/106/74
f 73/109/75 52/108/75 54/107/75
f 52/108/75 73/109/75 50/110/75
f 50/110/75 73/109/75 55/111/75
f 55/111/75 73/109/75 58/112/75
f 58/112/75 73/109/75 60/113/75
f 60/113/75 73/109/75 62/65/75
f 62/65/75 73/109/75 64/114/75
f 64/114/75 73/109/75 66/115/75
f 66/115/75 73/109/75 68/116/75
f 68/116/75 73/109/75 69/117/75
f 69/117/75 73/109/75 71/118/75
f 51/121/76 74/120/76 53/119/76
f 74/120/76 51/121/76 49/122/76
f 74/120/76 49/122/76 56/123/76
f 74/120/76 56/123/76 57/124/76
f 74/120/76 57/124/76 59/125/76
f 74/120/76 59/125/76 61/40/76
f 74/120/76 61/40/76 63/126/76
f 74/120/76 63/126/76 65/127/76
f 74/120/76 65/127/76 67/128/76
f 74/120/76 67/128/76 70/129/76
f 74/120/76 70/129/76 72/130/76
f 53/133/77 73/132/77 54/131/77
f 73/132/77 53/133/77 74/134/77
g cylinder_full_155

v -0.5263141 3.525 -0.09999996
v -0.5263141 3.525 5.960464E-08
v -0.5812593 3.127052 -0.1
v -0.5812593 3.127052 0
v -0.6000001 2.7 -0.1000001
v -0.6000001 2.7 -4.808254E-08
v -0.5812593 2.272949 -0.1000001
v -0.5812593 2.272949 -1.192093E-07
v -0.5263141 1.875 -0.1000002
v -0.5263141 1.875 -1.788139E-07
v -0.4389089 3.866726 1.192093E-07
v -0.4389089 3.866726 -0.0999999
v -0.4389089 1.533274 -0.1000001
v -0.4389089 1.533274 -1.192093E-07
v -0.3250001 1.271058 -1.192093E-07
v -0.3250001 1.271058 -0.1000001
v -0.1923505 1.106222 -2.384186E-07
v -0.1923505 1.106222 -0.1000003
v -0.05 1.05 -2.384186E-07
v -0.04999999 1.05 -0.1000003
v 0.09235051 1.106222 -2.384186E-07
v 0.09235053 1.106222 -0.1000003
v -0.3250001 4.128942 -0.0999999
v -0.3250001 4.128942 1.192093E-07
v -0.1923505 4.293778 -0.09999979
v -0.1923505 4.293778 2.384186E-07
v -0.04999999 4.35 -0.09999979
v -0.05 4.35 2.384186E-07
v 0.09235053 4.293778 -0.09999979
v 0.09235051 4.293778 2.384186E-07
v 0.2250001 1.271058 -1.192093E-07
v 0.2250001 1.271058 -0.1000001
v 0.3389089 1.533274 -1.192093E-07
v 0.3389089 1.533274 -0.1000001
v 0.4263141 1.875 -0.1000001
v 0.4263141 1.875 -5.960464E-08
v 0.4812593 2.272949 -0.1
v 0.4812593 2.272949 0
v 0.5000001 2.7 -0.09999997
v 0.5000001 2.7 4.808254E-08
v 0.4812593 3.127052 -0.0999999
v 0.4812593 3.127052 1.192093E-07
v 0.4263141 3.525 -0.09999985
v 0.4263141 3.525 1.788139E-07
v 0.3389089 3.866726 -0.0999999
v 0.3389089 3.866726 1.192093E-07
v 0.2250001 4.128942 1.192093E-07
v 0.2250001 4.128942 -0.0999999
vn -0.9275993 1.773709 1.192093E-07
vn -0.9758254 1.523118 1.192093E-07
vn -1.049015 0.9930303 0
vn -1.073979 0.7135329 -5.960464E-08
vn -1.098943 0.1446785 -7.450581E-08
vn -1.098943 -0.1446785 -1.043081E-07
vn -1.073979 -0.7135329 -1.788139E-07
vn -1.049015 -0.9930303 -2.384186E-07
vn -0.9758254 -1.523118 -3.576279E-07
vn -0.9275993 -1.773709 -3.576279E-07
vn -0.7778177 2.333453 2.384186E-07
vn -0.7778177 2.333452 2.384186E-07
vn -0.7778178 -2.333452 -2.384186E-07
vn -0.7778177 -2.333452 -2.384186E-07
vn -0.5912364 -2.782797 -2.384186E-07
vn -0.5077062 -2.927475 -2.384186E-07
vn -0.3310101 -3.147045 -4.768372E-07
vn -0.2378443 -3.221936 -4.768372E-07
vn -0.04822619 -3.296827 -4.768372E-07
vn 0.04822619 -3.296827 -4.768372E-07
vn 0.2378443 -3.221936 -4.768372E-07
vn 0.3310101 -3.147045 -4.768372E-07
vn -0.5912364 2.782797 2.384186E-07
vn -0.5077062 2.927475 2.384186E-07
vn -0.3310101 3.147045 4.768372E-07
vn -0.2378443 3.221936 4.768372E-07
vn -0.04822619 3.296827 4.768372E-07
vn 0.04822619 3.296827 4.768372E-07
vn 0.2378443 3.221936 4.768372E-07
vn 0.3310101 3.147045 4.768372E-07
vn 0.5077062 -2.927475 -2.384186E-07
vn 0.5912364 -2.782797 -2.384186E-07
vn 0.7778177 -2.333453 -2.384186E-07
vn 0.7778177 -2.333452 -2.384186E-07
vn 0.9275993 -1.773709 -1.192093E-07
vn 0.9758254 -1.523118 -1.192093E-07
vn 1.049015 -0.9930303 0
vn 1.073979 -0.7135329 5.960464E-08
vn 1.098943 -0.1446785 7.450581E-08
vn 1.098943 0.1446785 1.043081E-07
vn 1.073979 0.7135329 1.788139E-07
vn 1.049015 0.9930303 2.384186E-07
vn 0.9758254 1.523118 3.576279E-07
vn 0.9275993 1.773709 3.576279E-07
vn 0.7778177 2.333453 2.384186E-07
vn 0.7778177 2.333452 2.384186E-07
vn 0.5912364 2.782797 2.384186E-07
vn 0.5077062 2.927475 2.384186E-07
vn -8.742279E-09 1.490116E-08 0.1
vn 8.742279E-09 -1.490116E-08 -0.1
vt -0.09999996 3.525
vt 5.670696E-08 3.525
vt -0.1 3.127052
vt 4.464332E-09 3.127052
vt -0.1000001 2.7
vt -4.808254E-08 2.7
vt -0.1000001 2.272949
vt -9.735266E-08 2.272949
vt -0.1000002 1.875
vt -1.399884E-07 1.875
vt 1.050851E-07 3.866726
vt -0.09999991 3.866726
vt -0.1000002 1.533274
vt -1.730841E-07 1.533274
vt -1.943844E-07 1.271058
vt -0.1000002 1.271058
vt -2.024378E-07 1.106222
vt -0.1000002 1.106222
vt 0.1923505 2.024378E-07
vt 0.05 1.966953E-07
vt 0.1923505 0.1000002
vt 0.04999999 0.1000002
vt -0.09235051 1.775484E-07
vt -0.09235051 0.1000002
vt -0.09999987 4.128942
vt 1.463019E-07 4.128942
vt -0.09999984 4.293778
vt 1.775484E-07 4.293778
vt 0.1923505 -0.09999984
vt 0.04999999 -0.09999982
vt 0.1923505 1.775484E-07
vt -0.09235051 -0.09999982
vt -0.09235051 2.024378E-07
vt 1.775484E-07 1.106222
vt 1.463019E-07 1.271058
vt 0.1000002 1.106222
vt 0.1000002 1.271058
vt 1.050851E-07 1.533274
vt 0.1000001 1.533274
vt 0.1000001 1.875
vt 5.670696E-08 1.875
vt 0.1 2.272949
vt 4.464332E-09 2.272949
vt 0.09999997 2.7
vt 0.09999992 3.127052
vt -9.735266E-08 3.127052
vt 0.09999987 3.525
vt -1.399884E-07 3.525
vt 0.09999985 3.866726
vt -1.730841E-07 3.866726
vt -1.943844E-07 4.128942
vt 0.09999982 4.128942
vt -2.024378E-07 4.293778
vt 0.09999982 4.293778
vt -0.6000001 2.7
vt -0.5812593 3.127052
vt -0.5812593 2.272949
vt -0.5263141 3.525
vt -0.5263141 1.875
vt -0.4389088 3.866726
vt -0.4389088 1.533274
vt -0.3250001 4.128942
vt -0.3250001 1.271058
vt -0.1923505 4.293778
vt -0.1923505 1.106222
vt -0.05 1.05
vt -0.05 4.35
vt 0.09235051 1.106222
vt 0.09235051 4.293778
vt 0.2250001 4.128942
vt 0.2250001 1.271058
vt 0.3389088 3.866726
vt 0.3389088 1.533274
vt 0.4263141 3.525
vt 0.4263141 1.875
vt 0.4812593 3.127052
vt 0.4812593 2.272949
vt 0.5000001 2.7
vt 0.6000001 2.7
vt 0.5812593 2.272949
vt 0.5812593 3.127052
vt 0.5263141 3.525
vt 0.5263141 1.875
vt 0.4389088 3.866726
vt 0.4389088 1.533274
vt 0.325 4.128942
vt 0.325 1.271058
vt 0.1923505 4.293778
vt 0.1923505 1.106222
vt 0.04999999 4.35
vt 0.04999999 1.05
vt -0.09235051 4.293778
vt -0.09235051 1.106222
vt -0.2250001 4.128942
vt -0.2250001 1.271058
vt -0.3389088 3.866726
vt -0.3389088 1.533274
vt -0.4263141 3.525
vt -0.4263141 1.875
vt -0.4812593 3.127052
vt -0.4812593 2.272949
vt -0.5000001 2.7

usemtl _defaultMat (Instance) (Instance)
usemap _defaultMat (Instance) (Instance)
f 77/137/80 76/136/79 75/135/78
f 76/136/79 77/137/80 78/138/81
f 79/139/82 78/138/81 77/137/80
f 78/138/81 79/139/82 80/140/83
f 81/141/84 80/140/83 79/139/82
f 80/140/83 81/141/84 82/142/85
f 83/143/86 82/142/85 81/141/84
f 82/142/85 83/143/86 84/144/87
f 85/145/88 75/135/78 76/136/79
f 75/135/78 85/145/88 86/146/89
f 87/147/90 84/144/87 83/143/86
f 84/144/87 87/147/90 88/148/91
f 87/147/90 89/149/92 88/148/91
f 89/149/92 87/147/90 90/150/93
f 90/150/93 91/151/94 89/149/92
f 91/151/94 90/150/93 92/152/95
f 92/155/95 93/154/96 91/153/94
f 93/154/96 92/155/95 94/156/97
f 94/156/97 95/157/98 93/154/96
f 95/157/98 94/156/97 96/158/99
f 85/145/88 97/159/100 86/146/89
f 97/159/100 85/145/88 98/160/101
f 98/160/101 99/161/102 97/159/100
f 99/161/102 98/160/101 100/162/103
f 100/165/103 101/164/104 99/163/102
f 101/164/104 100/165/103 102/154/105
f 102/154/105 103/166/106 101/164/104
f 103/166/106 102/154/105 104/167/107
f 96/170/99 105/169/108 95/168/98
f 105/169/108 96/170/99 106/171/109
f 106/171/109 107/172/110 105/169/108
f 107/172/110 106/171/109 108/173/111
f 109/174/112 107/172/110 108/173/111
f 107/172/110 109/174/112 110/175/113
f 111/176/114 110/175/113 109/174/112
f 110/175/113 111/176/114 112/177/115
f 113/178/116 112/177/115 111/176/114
f 112/177/115 113/178/116 114/140/117
f 115/179/118 114/140/117 113/178/116
f 114/140/117 115/179/118 116/180/119
f 117/181/120 116/180/119 115/179/118
f 116/180/119 117/181/120 118/182/121
f 119/183/122 118/182/121 117/181/120
f 118/182/121 119/183/122 120/184/123
f 119/183/122 121/185/124 120/184/123
f 121/185/124 119/183/122 122/186/125
f 122/186/125 104/187/107 121/185/124
f 104/187/107 122/186/125 103/188/106
f 82/191/126 78/190/126 80/189/126
f 78/190/126 82/191/126 76/192/126
f 76/192/126 82/191/126 84/193/126
f 76/192/126 84/193/126 85/194/126
f 85/194/126 84/193/126 88/195/126
f 85/194/126 88/195/126 98/196/126
f 98/196/126 88/195/126 89/197/126
f 98/196/126 89/197/126 100/198/126
f 100/198/126 89/197/126 91/199/126
f 100/198/126 91/199/126 93/200/126
f 100/198/126 93/200/126 102/201/126
f 102/201/126 93/200/126 95/202/126
f 102/201/126 95/202/126 104/203/126
f 104/203/126 95/202/126 121/204/126
f 121/204/126 95/202/126 105/205/126
f 121/204/126 105/205/126 120/206/126
f 120/206/126 105/205/126 107/207/126
f 120/206/126 107/207/126 118/208/126
f 118/208/126 107/207/126 110/209/126
f 118/208/126 110/209/126 116/210/126
f 116/210/126 110/209/126 112/211/126
f 116/210/126 112/211/126 114/212/126
f 77/215/127 81/214/127 79/213/127
f 81/214/127 77/215/127 75/216/127
f 81/214/127 75/216/127 83/217/127
f 83/217/127 75/216/127 86/218/127
f 83/217/127 86/218/127 87/219/127
f 87/219/127 86/218/127 97/220/127
f 87/219/127 97/220/127 90/221/127
f 90/221/127 97/220/127 99/222/127
f 90/221/127 99/222/127 92/223/127
f 92/223/127 99/222/127 101/224/127
f 92/223/127 101/224/127 94/225/127
f 94/225/127 101/224/127 103/226/127
f 94/225/127 103/226/127 96/227/127
f 96/227/127 103/226/127 122/228/127
f 96/227/127 122/228/127 106/229/127
f 106/229/127 122/228/127 119/230/127
f 106/229/127 119/230/127 108/231/127
f 108/231/127 119/230/127 117/232/127
f 108/231/127 117/232/127 109/233/127
f 109/233/127 117/232/127 115/234/127
f 109/233/127 115/234/127 111/235/127
f 111/235/127 115/234/127 113/236/127
g block_piramid_156

v -0.3 1.7 -0.05000002
v -0.3 1.5 -0.04999999
v -0.2 1.7 -0.05000001
v -0.2 1.5 -0.04999998
v -0.25 1.6 0.25
vn 2.622684E-08 2.980232E-08 -0.3
vn 0.08944272 -1.490116E-08 0.1341641
vn -1.1729E-08 0.1788854 0.1341641
vn -1.1729E-08 -0.1788855 0.1341641
vn -0.08944275 -1.490116E-08 0.1341641
vt 0.3 1.7
vt 0.3 1.5
vt 0.2 1.7
vt 0.2 1.5
vt 0.04999999 1.5
vt -0.25 1.6
vt 0.05000001 1.7
vt 0.3 -0.05000002
vt 0.2 -0.05000001
vt 0.25 0.25
vt 0.2 0.04999999
vt 0.3 0.04999999
vt 0.25 -0.25
vt 0.25 1.6
vt -0.04999999 1.5
vt -0.05000002 1.7

usemtl _defaultMat (Instance) (Instance)
usemap _defaultMat (Instance) (Instance)
f 125/239/128 124/238/128 123/237/128
f 124/238/128 125/239/128 126/240/128
f 125/243/129 127/242/129 126/241/129
f 127/246/130 125/245/130 123/244/130
f 127/249/131 124/248/131 126/247/131
f 123/252/132 124/251/132 127/250/132
g block_piramid_157

v 0.09999999 1.7 -0.05000002
v 0.09999999 1.5 -0.04999999
v 0.2 1.7 -0.05000001
v 0.2 1.5 -0.04999998
v 0.15 1.6 0.25
vt -0.09999999 1.7
vt -0.09999999 1.5
vt -0.2 1.7
vt -0.2 1.5
vt -0.09999999 -0.05000002
vt -0.2 -0.05000001
vt -0.15 0.25
vt -0.2 0.04999999
vt -0.09999999 0.04999999
vt -0.15 -0.25

usemtl _defaultMat (Instance) (Instance)
usemap _defaultMat (Instance) (Instance)
f 130/255/128 129/254/128 128/253/128
f 129/254/128 130/255/128 131/256/128
f 130/243/129 132/242/129 131/241/129
f 132/259/130 130/258/130 128/257/130
f 132/262/131 129/261/131 131/260/131
f 128/252/132 129/251/132 132/250/132
g block_piramid_158

v -0.1 1.4 -0.05000002
v -0.1 1.2 -0.04999999
v 1.490116E-08 1.4 -0.05000001
v 1.490116E-08 1.2 -0.04999998
v -0.05000003 1.3 0.25
vt 0.1 1.4
vt 0.1 1.2
vt -1.117587E-08 1.4
vt -1.117587E-08 1.2
vt 0.04999999 1.2
vt -0.25 1.3
vt 0.05000001 1.4
vt 0.1 -0.05000002
vt -1.117587E-08 -0.05000001
vt 0.05000003 0.25
vt -1.117587E-08 0.04999999
vt 0.1 0.04999999
vt 0.05000003 -0.25
vt 0.25 1.3
vt -0.04999999 1.2
vt -0.05000002 1.4

usemtl _defaultMat (Instance) (Instance)
usemap _defaultMat (Instance) (Instance)
f 135/265/128 134/264/128 133/263/128
f 134/264/128 135/265/128 136/266/128
f 135/269/129 137/268/129 136/267/129
f 137/272/130 135/271/130 133/270/130
f 137/275/131 134/274/131 136/273/131
f 133/278/132 134/277/132 137/276/132
